<svg width="46" height="44" viewBox="0 0 46 44" fill="none" xmlns="http://www.w3.org/2000/svg">
<path fill-rule="evenodd" clip-rule="evenodd" d="M6.09161 3.28312C4.48804 3.14572 3.2093 4.34884 3.2093 5.99383V32.3458C3.2093 33.6276 4.28783 34.8836 5.52645 35.0414C5.53337 35.0423 5.54028 35.0432 5.54718 35.0442L6.16053 35.1307C6.16164 35.1309 6.16274 35.131 6.16385 35.1312C10.9925 35.7898 18.325 38.243 22.6082 40.6242L22.6664 40.6537C22.6873 40.6643 22.708 40.6754 22.7284 40.6869C22.7295 40.6873 22.7502 40.6971 22.7943 40.7073C22.8469 40.7195 22.9136 40.7278 22.9866 40.7278C23.0598 40.7278 23.1232 40.7195 23.1697 40.7085C23.1941 40.7028 23.2083 40.6977 23.2135 40.6956C23.219 40.6925 23.2245 40.6893 23.23 40.6862C27.5121 38.2758 34.8921 35.7901 39.7549 35.1306C39.7609 35.1298 39.7669 35.129 39.7729 35.1282L40.4735 35.0414C40.4743 35.0413 40.4751 35.0412 40.4759 35.0411C41.7136 34.882 42.7907 33.6268 42.7907 32.3458V6.01567C42.7907 4.36468 41.506 3.16623 39.8869 3.30495C39.8422 3.30878 39.7974 3.3107 39.7526 3.3107H39.6922C39.6554 3.31395 39.6185 3.31732 39.5814 3.32081V13.2799C39.5814 13.883 39.256 14.4371 38.7347 14.722C38.2134 15.0068 37.5807 14.9762 37.0882 14.6423L33.6977 12.3434L30.3072 14.6423C29.8147 14.9762 29.1819 15.0068 28.6606 14.722C28.1393 14.4371 27.814 13.883 27.814 13.2799V6.87995C26.8976 7.32483 26.0662 7.77971 25.3556 8.22735L25.0056 8.45824C24.9972 8.46378 24.9887 8.46924 24.9802 8.47462C24.3562 8.86957 23.6318 9.01515 23 9.01515C22.3723 9.01515 21.6533 8.87147 21.032 8.48233L20.5057 8.16046C20.4978 8.15561 20.4899 8.15069 20.4821 8.14571C16.8885 5.86088 10.331 3.63304 6.09651 3.28353L6.09161 3.28312ZM6.35777 0.0222219C2.87042 -0.275107 0 2.44787 0 5.99383V32.3458C0 35.2486 2.25308 37.9155 5.11691 38.2869L5.72821 38.373L5.73541 38.374C10.182 38.9799 17.1604 41.3161 21.0961 43.5106C21.1143 43.5207 21.1327 43.5305 21.1513 43.5399L21.2102 43.5698C21.782 43.8832 22.4239 44 22.9866 44C23.5536 44 24.2116 43.8812 24.7915 43.545C28.7246 41.3338 35.7072 38.9824 40.1692 38.3754L40.8661 38.289L40.8716 38.2883C43.7409 37.9227 46 35.2524 46 32.3458V6.01567C46 2.45598 43.1313 -0.216119 39.6902 0.0385328H39.6242C39.5797 0.0385328 39.5353 0.0404181 39.4909 0.0441842C38.9414 0.0908793 38.3294 0.162356 37.6846 0.284117C36.924 0.427728 36.3721 1.10416 36.3721 1.89285V10.2271L34.5862 9.01622C34.0479 8.65123 33.3474 8.65123 32.8091 9.01622L31.0233 10.2271V4.37959C31.0233 3.83612 30.7586 3.32813 30.3169 3.02389C29.8752 2.71966 29.3142 2.65889 28.8197 2.86173C26.8997 3.64926 25.1004 4.54005 23.6531 5.45354C23.644 5.45925 23.635 5.46506 23.6261 5.47096L23.2878 5.69409C23.2809 5.69734 23.2585 5.7074 23.2171 5.71789C23.1589 5.73269 23.0837 5.74299 23 5.74299C22.9163 5.74299 22.8411 5.73269 22.7829 5.71789C22.7332 5.70528 22.7108 5.6933 22.71 5.69301C22.7038 5.68914 22.6977 5.68531 22.6915 5.68153L22.1682 5.3615C18.1436 2.80681 11.1045 0.414597 6.35777 0.0222219Z" fill="#F4EEF5"/>
<path fill-rule="evenodd" clip-rule="evenodd" d="M22.6047 8C23.4909 8 24.2093 8.7325 24.2093 9.63608V42.3578C24.2093 43.2614 23.4909 43.9939 22.6047 43.9939C21.7184 43.9939 21 43.2614 21 42.3578V9.63608C21 8.7325 21.7184 8 22.6047 8Z" fill="#F4EEF5"/>
<path fill-rule="evenodd" clip-rule="evenodd" d="M28.2024 29.3899C28.5609 29.7007 28.7674 30.1564 28.7674 30.6362V42.0232C28.7674 42.6263 28.4421 43.1804 27.9208 43.4653C27.3995 43.7501 26.7667 43.7195 26.2742 43.3856L22.8837 41.0867L19.4932 43.3856C19.0007 43.7195 18.368 43.7501 17.8467 43.4653C17.3254 43.1804 17 42.6263 17 42.0232V33.1229C17 32.4523 17.4013 31.8496 18.0126 31.6022C20.905 30.4316 24.1413 29.4795 26.9053 29.0213C27.3697 28.9443 27.844 29.079 28.2024 29.3899ZM20.2093 34.2489V38.9704L21.9952 37.7595C22.5335 37.3945 23.234 37.3945 23.7723 37.7595L25.5581 38.9704V32.6231C23.835 33.0205 21.9816 33.584 20.2093 34.2489Z" fill="#F4EEF5"/>
</svg>
