<svg width="667" height="667" viewBox="0 0 667 667" fill="none" xmlns="http://www.w3.org/2000/svg">
<path d="M473 0.333008H193.667C72.3333 0.333008 0 72.6663 0 194V473C0 594.666 72.3333 667 193.667 667H472.667C594 667 666.333 594.666 666.333 473.333V194C666.667 72.6663 594.333 0.333008 473 0.333008ZM445.333 410.333C455 420 455 436 445.333 445.666C440.333 450.666 434 453 427.667 453C421.333 453 415 450.666 410 445.666L333.333 369L256.667 445.666C251.667 450.666 245.333 453 239 453C232.667 453 226.333 450.666 221.333 445.666C211.667 436 211.667 420 221.333 410.333L298 333.666L221.333 257C211.667 247.333 211.667 231.333 221.333 221.666C231 212 247 212 256.667 221.666L333.333 298.333L410 221.666C419.667 212 435.667 212 445.333 221.666C455 231.333 455 247.333 445.333 257L368.667 333.666L445.333 410.333Z" fill="#292D32"/>
</svg>
