<svg width="46" height="45" viewBox="0 0 46 45" fill="none" xmlns="http://www.w3.org/2000/svg">
<path d="M37.896 37.2408H8.06412C7.13252 37.2408 6.37122 37.7966 6.37122 38.4932C6.37122 39.1824 7.1226 39.7457 8.06412 39.7457H37.9061C38.8377 39.7457 39.599 39.1898 39.599 38.4932C39.5889 37.7966 38.8377 37.2408 37.896 37.2408Z" fill="#F4EEF5"/>
<path d="M37.896 31.7565H8.06412C7.13252 31.7565 6.37122 32.3123 6.37122 33.009C6.37122 33.6982 7.1226 34.2614 8.06412 34.2614H37.9061C38.8377 34.2614 39.599 33.7055 39.599 33.009C39.5889 32.3124 38.8377 31.7565 37.896 31.7565Z" fill="#F4EEF5"/>
<path d="M22.98 5.25446C18.973 5.25446 15.6973 7.6705 15.6973 10.6423C15.6973 13.6068 18.973 16.0227 22.98 16.0227C26.987 16.0227 30.2627 13.6067 30.2627 10.6349C30.2627 7.66305 26.987 5.25446 22.98 5.25446ZM22.98 13.5105C20.8462 13.5105 19.0932 12.2136 19.0932 10.635C19.0932 9.05639 20.8362 7.75946 22.98 7.75946C25.1238 7.75946 26.8668 9.05639 26.8668 10.635C26.8668 12.2135 25.1138 13.5105 22.98 13.5105Z" fill="#F4EEF5"/>
<path d="M32.6468 18.7279C26.4661 16.9493 19.5139 16.9493 13.3333 18.7279C11.3097 19.3134 9.95737 20.803 9.95737 22.4409V27.5248C9.9473 28.214 10.7088 28.7773 11.6404 28.7773H34.3298C35.2614 28.7773 36.0227 28.2215 36.0227 27.5248V22.4409C36.0227 20.803 34.6704 19.3134 32.6468 18.7279ZM32.6468 26.2797H13.3333V22.4482C13.3333 21.8405 13.8242 21.2773 14.5554 21.0698C19.9548 19.5209 26.0254 19.5209 31.4248 21.0698C32.1561 21.2847 32.647 21.8332 32.647 22.4482V26.2797H32.6468Z" fill="#F4EEF5"/>
<path d="M41.1016 0H12.9626C11.6604 0 10.4382 0.370518 9.5167 1.0524L1.42251 7.04052C0.500977 7.7224 0 8.62646 0 9.58989V41.3834C0 43.377 2.19389 45 4.88844 45H41.1116C43.8063 45 46 43.3769 46 41.3834V3.61656C45.9701 1.62308 43.7762 0 41.1016 0ZM9.94733 4.26875V7.36656H5.76007L9.94733 4.26875ZM42.5942 13.3918H36.3032C35.3716 13.3918 34.6103 13.9477 34.6103 14.6443C34.6103 15.3335 35.3616 15.8967 36.3032 15.8967H42.5942V18.1201H40.2901C39.3585 18.1201 38.5972 18.6758 38.5972 19.3725C38.5972 20.0617 39.3486 20.6249 40.2901 20.6249H42.5942V41.3908C42.5942 42.0059 41.9231 42.5024 41.1016 42.5024H4.85853C4.0371 42.5024 3.36598 42.0059 3.36598 41.3982V9.86411H11.6404C12.572 9.86411 13.3333 9.30834 13.3333 8.61167V2.4901H41.1016C41.9231 2.4901 42.5942 2.98661 42.5942 3.59432V13.3918Z" fill="#F4EEF5"/>
</svg>
