<svg width="739" height="733" viewBox="0 0 739 733" fill="none" xmlns="http://www.w3.org/2000/svg">
<path d="M155.974 364.565V577.542H369.658L325.094 533.126H200.538V408.982L155.974 364.565Z" fill="#F4EEF5"/>
<path d="M732.409 695.024L668.459 630.398V688.583H44.5643V596.419H89.1282V560.886H44.5643V413.202H89.1282V377.668H44.5643V235.536H89.1282V200.003H44.5643V75.8591L399.739 427.859V365.232L38.1025 6.56953C34.9859 3.43753 31.0041 1.30153 26.6648 0.433866C22.3254 -0.433801 17.8251 0.00617445 13.7376 1.6977C9.65013 3.38923 6.16065 6.25567 3.71406 9.93156C1.26748 13.6075 -0.0253609 17.9263 0.000376943 22.3374V710.791C0.000376943 716.681 2.34793 722.33 6.52661 726.495C10.7053 730.66 16.3728 733 22.2823 733H716.588C721.014 733.025 725.347 731.737 729.035 729.298C732.723 726.86 735.599 723.382 737.297 719.308C738.994 715.234 739.435 710.748 738.565 706.423C737.694 702.099 735.551 698.13 732.409 695.024Z" fill="#F4EEF5"/>
<path d="M490.204 644.167H579.331C591.151 644.167 602.486 639.488 610.843 631.158C619.2 622.828 623.895 611.531 623.895 599.751V171.133L572.647 77.192C568.683 70.3479 562.959 64.6816 556.066 60.7778C549.172 56.8739 541.358 54.8738 533.431 54.9838C525.323 55.0479 517.387 57.3153 510.477 61.5417C503.566 65.7681 497.944 71.7934 494.214 78.9687L445.64 171.577V599.751C445.64 611.531 450.335 622.828 458.692 631.158C467.049 639.488 478.384 644.167 490.204 644.167ZM490.204 182.237L533.431 98.5119L579.331 182.459V510.918H490.204V182.237ZM490.204 547.117H579.331V601.305H490.204V547.117Z" fill="#F4EEF5"/>
</svg>
