<svg width="522" height="625" viewBox="0 0 522 625" fill="none" xmlns="http://www.w3.org/2000/svg">
<path fill-rule="evenodd" clip-rule="evenodd" d="M373.292 250.303C328.158 250.303 296.083 280.147 296.083 312.167C296.083 344.186 328.158 374.03 373.292 374.03C418.425 374.03 450.5 344.186 450.5 312.167C450.5 280.147 418.425 250.303 373.292 250.303ZM225.25 312.167C225.25 240.901 294.023 187.015 373.292 187.015C452.56 187.015 521.333 240.901 521.333 312.167C521.333 383.433 452.56 437.318 373.292 437.318C294.023 437.318 225.25 383.433 225.25 312.167Z" fill="#F4EEF5"/>
<path fill-rule="evenodd" clip-rule="evenodd" d="M148.042 437.318C102.908 437.318 70.8333 467.161 70.8333 499.182C70.8333 531.203 102.908 561.046 148.042 561.046C193.177 561.046 225.25 531.203 225.25 499.182V437.318H148.042ZM0 499.182C0 427.914 68.7735 374.03 148.042 374.03H296.083V499.182C296.083 570.449 227.312 624.333 148.042 624.333C68.7735 624.333 0 570.45 0 499.182Z" fill="#F4EEF5"/>
<path fill-rule="evenodd" clip-rule="evenodd" d="M148.042 250.303C102.908 250.303 70.8333 280.146 70.8333 312.167C70.8333 344.187 102.908 374.03 148.042 374.03H225.25V250.303H148.042ZM0 312.167C0 240.899 68.7735 187.015 148.042 187.015H296.083V437.318H148.042C68.7735 437.318 0 383.434 0 312.167Z" fill="#F4EEF5"/>
<path fill-rule="evenodd" clip-rule="evenodd" d="M148.042 63.2877C102.908 63.2877 70.8333 93.132 70.8333 125.151C70.8333 157.171 102.908 187.015 148.042 187.015H225.25V63.2877H148.042ZM0 125.151C0 53.8856 68.7731 0 148.042 0H296.083V250.303H148.042C68.7731 250.303 0 196.417 0 125.151Z" fill="#F4EEF5"/>
<path fill-rule="evenodd" clip-rule="evenodd" d="M225.25 0H373.292C452.562 0 521.333 53.8859 521.333 125.151C521.333 196.417 452.562 250.303 373.292 250.303H225.25V0ZM296.083 63.2877V187.015H373.292C418.426 187.015 450.5 157.171 450.5 125.151C450.5 93.1317 418.426 63.2877 373.292 63.2877H296.083Z" fill="#F4EEF5"/>
</svg>
