<svg width="600" height="600" viewBox="0 0 600 600" fill="none" xmlns="http://www.w3.org/2000/svg">
<path d="M533.333 66.6667V533.333H66.6667V66.6667H533.333ZM533.333 0H66.6667C48.9856 0 32.0286 7.02379 19.5262 19.5262C7.02379 32.0286 0 48.9856 0 66.6667V533.333C0 551.014 7.02379 567.971 19.5262 580.474C32.0286 592.976 48.9856 600 66.6667 600H533.333C551.014 600 567.971 592.976 580.474 580.474C592.976 567.971 600 551.014 600 533.333V66.6667C600 48.9856 592.976 32.0286 580.474 19.5262C567.971 7.02379 551.014 0 533.333 0Z" fill="#F4EEF5"/>
<path d="M310 439.333L291 377H195.333L176.333 439.333H116.667L209 176.333H275.667L368.333 439.333H310ZM276.667 330.333C259 274 249.333 242 247 234.666C244.667 227.333 243.333 221.333 242.333 217C238.333 232.333 227 270.333 209 330.333H276.667Z" fill="#F4EEF5"/>
<path d="M396 187.333C396 169.666 406 160.667 425.667 160.667C445.333 160.667 455.333 169.666 455.333 187.333C455.587 190.945 455.064 194.569 453.799 197.962C452.534 201.354 450.557 204.436 448 207C444.963 209.663 441.419 211.685 437.582 212.945C433.744 214.205 429.691 214.677 425.667 214.333C406 214.333 396 205.333 396 187.333ZM453 439.333H400V239.333H454.667L453 439.333Z" fill="#F4EEF5"/>
</svg>
