<svg width="467" height="734" viewBox="0 0 467 734" fill="none" xmlns="http://www.w3.org/2000/svg">
<path d="M233.333 633.333C260.947 633.333 283.333 610.946 283.333 583.333C283.333 555.72 260.947 533.333 233.333 533.333C205.72 533.333 183.333 555.72 183.333 583.333C183.333 610.946 205.72 633.333 233.333 633.333Z" fill="#F4EEF5"/>
<path fill-rule="evenodd" clip-rule="evenodd" d="M0 633.333C0 683.557 35.872 733.333 90.4763 733.333H376.19C430.793 733.333 466.667 683.557 466.667 633.333V100C466.667 49.7773 430.793 0 376.19 0H90.4763C35.872 0 0 49.7773 0 100V633.333ZM90.4763 666.667C81.962 666.667 66.6667 656.75 66.6667 633.333V100C66.6667 76.5847 81.962 66.6667 90.4763 66.6667H376.19C384.703 66.6667 400 76.5847 400 100V633.333C400 656.75 384.703 666.667 376.19 666.667H90.4763Z" fill="#F4EEF5"/>
</svg>
