<svg width="757" height="701" viewBox="0 0 757 701" fill="none" xmlns="http://www.w3.org/2000/svg">
<path fill-rule="evenodd" clip-rule="evenodd" d="M0 100.143C0 42.4347 48.6624 0 103.227 0H653.773C708.339 0 757 42.4347 757 100.143V425.609C757 483.315 708.339 525.75 653.773 525.75H412.909V630.9H533.341C552.345 630.9 567.75 646.592 567.75 665.95C567.75 685.308 552.345 701 533.341 701H223.659C204.656 701 189.25 685.308 189.25 665.95C189.25 646.592 204.656 630.9 223.659 630.9H344.091V525.75H103.227C48.6624 525.75 0 483.315 0 425.609V100.143ZM103.227 70.1C81.7777 70.1 68.8182 85.9514 68.8182 100.143V425.609C68.8182 439.797 81.7777 455.65 103.227 455.65H653.773C675.223 455.65 688.182 439.797 688.182 425.609V100.143C688.182 85.9514 675.223 70.1 653.773 70.1H103.227Z" fill="#F4EEF5"/>
</svg>
