<svg width="800" height="480" viewBox="0 0 800 480" fill="none" xmlns="http://www.w3.org/2000/svg">
<path d="M225.496 174.35C225.496 184.2 226.496 192.2 228.396 198.1C230.496 203.95 233.196 210.35 236.896 217.3C238.076 219.136 238.717 221.267 238.746 223.45C238.746 226.1 237.146 228.8 233.746 231.45L216.946 242.65C214.929 244.106 212.531 244.94 210.046 245.05C207.346 245.05 204.696 243.75 202.046 241.35C198.452 237.483 195.237 233.281 192.446 228.8C189.471 223.671 186.719 218.416 184.196 213.05C163.446 237.6 137.396 249.9 105.996 249.9C83.6457 249.9 65.7957 243.45 52.7957 230.65C39.7457 217.85 33.0957 200.75 33.0957 179.4C33.0957 156.7 41.0957 138.3 57.2957 124.4C73.5457 110.5 95.0957 103.6 122.496 103.6C131.496 103.6 140.846 104.4 150.696 105.7C160.546 107.05 170.696 109.2 181.296 111.6V92.1C181.296 71.8 177.046 57.65 168.796 49.4C160.296 41.1 145.896 37.1 125.396 37.1C116.096 37.1 106.546 38.2 96.6957 40.6C86.9093 42.9291 77.3016 45.9534 67.9457 49.65C64.9251 51.0176 61.8185 52.1868 58.6457 53.15C57.2709 53.6043 55.8416 53.8733 54.3957 53.95C50.6457 53.95 48.7957 51.25 48.7957 45.65V32.55C48.7957 28.3 49.2957 25.05 50.6457 23.25C52.6606 20.7968 55.2318 18.8598 58.1457 17.6C67.3957 12.8 78.5957 8.8 91.6457 5.6C104.646 2.1 118.496 0.550008 133.146 0.550008C164.796 0.550008 187.946 7.75002 202.846 22.15C217.496 36.55 224.946 58.45 224.946 87.85V174.35H225.446H225.496ZM117.446 214.9C126.196 214.9 135.246 213.3 144.846 210.1C154.396 206.9 162.946 201 170.096 193C174.383 188.088 177.48 182.254 179.146 175.95C180.746 169.5 181.846 161.8 181.846 152.7V141.5C173.77 139.542 165.59 138.039 157.346 137C149.055 135.928 140.705 135.376 132.346 135.35C114.496 135.35 101.446 138.85 92.6957 146.05C83.8957 153.25 79.6957 163.4 79.6957 176.75C79.6957 189.25 82.8457 198.6 89.4957 205.05C95.8957 211.7 105.196 214.9 117.446 214.9ZM331.096 243.75C326.296 243.75 323.096 242.95 320.996 241.05C318.846 239.45 316.996 235.75 315.396 230.65L252.896 24.3C251.663 20.8415 250.841 17.2503 250.446 13.6C250.446 9.35002 252.596 6.95002 256.846 6.95002H282.946C287.946 6.95002 291.446 7.75002 293.296 9.60002C295.446 11.2 297.046 14.95 298.646 20L343.346 196.75L384.846 20C386.146 14.7 387.746 11.2 389.846 9.60002C393.054 7.63489 396.791 6.70933 400.546 6.95002H421.796C426.896 6.95002 430.296 7.75002 432.446 9.60002C434.596 11.2 436.446 14.95 437.496 20L479.546 198.9L525.546 20C526.399 16.1287 528.242 12.5452 530.896 9.60002C533.994 7.63653 537.636 6.70853 541.296 6.95002H566.046C570.296 6.95002 572.696 9.10002 572.696 13.6C572.696 14.95 572.396 16.3 572.196 17.9C571.766 20.1698 571.13 22.3957 570.296 24.55L506.146 230.9C504.546 236.25 502.696 239.75 500.596 241.35C497.576 243.281 494.024 244.209 490.446 244H467.596C462.546 244 459.096 243.2 456.946 241.35C454.796 239.45 452.946 236 451.896 230.65L410.646 58.5L369.646 230.45C368.346 235.8 366.746 239.25 364.646 241.1C362.496 243 358.746 243.8 353.996 243.8H331.096V243.75ZM672.996 250.95C659.188 250.968 645.426 249.357 631.996 246.15C618.696 242.95 608.346 239.45 601.396 235.45C597.146 233.05 594.246 230.4 593.146 227.95C592.129 225.597 591.602 223.063 591.596 220.5V206.9C591.596 201.3 593.696 198.6 597.696 198.6C599.329 198.604 600.95 198.874 602.496 199.4C604.096 199.95 606.496 201 609.146 202.1C618.146 206.1 628.046 209.3 638.396 211.45C649.046 213.55 659.396 214.65 670.046 214.65C686.846 214.65 699.846 211.7 708.896 205.85C713.243 203.218 716.815 199.481 719.248 195.019C721.681 190.557 722.888 185.53 722.746 180.45C722.836 177.02 722.246 173.606 721.01 170.405C719.774 167.204 717.917 164.28 715.546 161.8C710.796 156.7 701.746 152.15 688.696 147.9L650.096 135.9C630.696 129.75 616.296 120.65 607.546 108.65C598.98 97.5621 594.306 83.9611 594.246 69.95C594.246 58.75 596.646 48.85 601.396 40.3C606.196 31.8 612.596 24.3 620.596 18.4C628.596 12.3 637.596 7.75 648.246 4.55C658.896 1.35 670.046 0 681.746 0C687.646 0 693.746 0.250019 699.596 1.05002C705.696 1.85002 711.296 2.95002 716.896 4.05002C722.196 5.35002 727.296 6.65002 732.046 8.30002C736.846 9.90002 740.546 11.5 743.246 13.1C746.385 14.6766 749.122 16.9514 751.246 19.75C752.957 22.3533 753.782 25.44 753.596 28.55V41.1C753.596 46.7 751.496 49.65 747.496 49.65C743.954 49.2456 740.524 48.1589 737.396 46.45C721.317 39.3212 703.881 35.7726 686.296 36.05C671.146 36.05 659.146 38.45 650.896 43.55C642.646 48.55 638.396 56.35 638.396 67.3C638.396 74.75 641.046 81.15 646.396 86.25C651.696 91.3 661.546 96.35 675.646 100.9L713.446 112.9C732.596 119.05 746.446 127.6 754.696 138.55C762.946 149.5 766.896 162.05 766.896 175.95C766.896 187.45 764.546 197.8 759.996 206.9C755.285 216.031 748.669 224.045 740.596 230.4C732.346 237.05 722.496 241.9 711.046 245.35C699.046 249.1 686.546 250.95 672.996 250.95Z" fill="#252F3E"/>
<path fill-rule="evenodd" clip-rule="evenodd" d="M723.247 380.65C635.747 445.5 508.547 479.95 399.197 479.95C245.947 479.95 107.847 423.1 3.54651 328.6C-4.70349 321.1 2.74651 310.95 12.5465 316.85C125.397 382.5 264.546 422.3 408.546 422.3C505.596 422.3 612.297 402 710.497 360.35C725.147 353.7 737.647 369.95 723.247 380.65Z" fill="#FF9900"/>
<path fill-rule="evenodd" clip-rule="evenodd" d="M759.697 339C748.547 324.65 685.747 332.1 657.297 335.55C648.797 336.65 647.447 329.15 655.147 323.55C705.147 288.3 787.397 298.45 796.947 310.2C806.547 322.2 794.297 404.7 747.447 444.2C740.297 450.35 733.397 447.2 736.547 439.2C747.197 412.7 770.897 353.2 759.697 339.05V339Z" fill="#FF9900"/>
</svg>
