<svg width="801" height="801" viewBox="0 0 801 801" fill="none" xmlns="http://www.w3.org/2000/svg">
<path d="M635.658 11H164.425C79.6906 11 11 79.6906 11 164.425V635.658C11 720.392 79.6906 789.082 164.425 789.082H635.658C720.392 789.082 789.082 720.392 789.082 635.658V164.425C789.082 79.6906 720.392 11 635.658 11Z" fill="white" stroke="#4B32C3" stroke-width="21.9178"/>
<path d="M299.484 340.399L396.929 284.14C399.367 282.731 402.373 282.731 404.812 284.14L502.258 340.399C504.695 341.807 506.2 344.409 506.2 347.225V459.744C506.2 462.559 504.695 465.162 502.258 466.572L404.812 522.832C402.373 524.24 399.367 524.24 396.929 522.832L299.484 466.572C297.046 465.164 295.543 462.561 295.543 459.744V347.225C295.545 344.409 297.048 341.807 299.484 340.399Z" fill="#8080F2"/>
<path d="M654.227 391.648L537.8 189.097C533.571 181.774 525.758 176.372 517.302 176.372H284.442C275.984 176.372 268.17 181.774 263.94 189.097L147.513 391.201C143.284 398.527 143.284 407.772 147.513 415.098L263.94 615.989C268.17 623.312 275.984 627.057 284.442 627.057H517.3C525.756 627.057 533.571 623.425 537.798 616.099L654.225 414.88C658.459 407.559 658.459 398.972 654.227 391.648ZM557.819 489.048C557.819 492.026 556.026 494.78 553.445 496.271L405.142 581.835C402.562 583.324 399.331 583.324 396.752 581.835L248.333 496.271C245.754 494.78 243.949 492.028 243.949 489.048V317.919C243.949 314.939 245.728 312.187 248.309 310.696L396.607 225.132C399.186 223.641 402.413 223.641 404.993 225.132L553.421 310.696C556.002 312.187 557.819 314.939 557.819 317.919V489.048Z" fill="#4B32C3"/>
</svg>
