<svg width="913" height="556" viewBox="0 0 913 556" fill="none" xmlns="http://www.w3.org/2000/svg">
<path d="M118.901 179.552C120.953 173.008 123.199 172.176 125.022 172.176C126.844 172.176 129.88 173.008 131.932 179.552C148.107 227.616 174.806 323.363 194.5 393.99C207.344 440.05 217.208 475.425 219.232 479.927C226.83 496.828 237.249 486.295 243.304 467.125C249.264 448.252 250.919 435.001 250.919 420.863C250.919 411.233 164.563 63.7671 155.866 34.8449C147.502 7.02656 144.778 0 130.464 0H119.752C105.48 0 103.417 7.02656 95.0528 34.8449C86.3567 63.7671 0 411.233 0 420.863C0 435.001 1.65477 448.252 7.61559 467.125C13.6702 486.295 24.0897 496.828 31.6868 479.927C33.7109 475.425 43.5755 440.05 56.419 393.99C76.1134 323.363 102.726 227.616 118.901 179.552Z" fill="#000020"/>
<path d="M691.601 151.98C727.168 151.98 755.453 221.449 755.453 307.372C755.453 393.295 727.168 463.374 691.601 463.374C672.558 463.374 657.714 446.312 648.193 415.233V556H608.705V158.074H648.193V200.122C657.714 169.043 672.558 151.98 691.601 151.98ZM841.587 151.98C881.912 151.98 913 219.012 913 307.982C913 396.951 881.912 463.374 841.587 463.374C800.978 463.374 770.172 396.951 770.172 307.982C770.172 219.012 800.978 151.98 841.587 151.98ZM431.094 30.7136V117.246H352.398V194.028H422.412V280.559H352.398V370.748H431.094V457.28H310.951V30.7136H431.094ZM495.346 158.074L518.031 228.763L540.995 158.074H588.045L541.556 302.497L591.405 457.28H543.796L517.751 376.233L491.706 457.28H444.657L494.226 303.107L447.737 158.074H495.346ZM682.64 233.638C663.315 233.638 648.193 265.935 648.193 307.372C648.193 349.42 663.315 381.108 682.64 381.108C701.683 381.108 717.086 348.81 717.086 307.372C717.086 266.545 701.683 233.638 682.64 233.638ZM841.587 234.246C822.819 234.246 808.821 265.325 808.821 307.982C808.821 349.42 822.819 381.108 841.587 381.108C860.067 381.108 874.354 349.42 874.354 307.982C874.354 265.325 860.067 234.246 841.587 234.246Z" fill="#000020"/>
</svg>
