<svg width="723" height="798" viewBox="0 0 723 798" fill="none" xmlns="http://www.w3.org/2000/svg">
<path d="M677.181 392.82C677.181 351.806 643.933 318.559 602.918 318.559C600.281 318.559 597.678 318.7 595.113 318.969L697.112 18.1357H263.652L365.509 318.707C364.014 318.617 362.513 318.559 360.996 318.559C319.983 318.559 286.734 351.806 286.734 392.82C286.734 425.973 308.46 454.038 338.446 463.588C322.609 491.022 302.68 515.73 280.054 537.078C249.288 566.103 214.076 588.11 175.991 601.673C130.65 578.38 109.237 526.578 128.559 481.157C130.739 476.028 132.968 470.83 135.096 465.653C167.946 457.987 192.422 428.539 192.422 393.353C192.422 352.339 159.175 319.092 118.159 319.092C77.1454 319.092 43.8962 352.339 43.8962 393.353C43.8962 418.504 56.4109 440.718 75.5384 454.153C57.1582 496.002 30.1392 539.8 21.7217 590.563C11.6338 651.398 21.689 715.974 74.3051 752.443C196.844 837.372 329.858 699.792 470.104 665.208C520.932 652.674 576.724 654.694 621.505 628.758C655.133 609.28 677.302 577.003 683.594 540.765C689.81 504.966 680.748 469.323 659.909 440.421C670.688 427.531 677.181 410.937 677.181 392.82Z" fill="#99425B"/>
<path d="M665.725 537.661C660.262 569.122 640.831 596.604 612.414 613.063C585.925 628.406 554.181 632.985 520.573 637.832C502.568 640.427 483.95 643.113 465.762 647.598C417.671 659.456 371.091 682.594 326.045 704.968C235.898 749.745 158.046 788.41 84.6373 737.535C30.8659 700.267 33.3489 631.315 39.6135 593.53C45.4192 558.523 61.1151 526.284 76.2942 495.104C78.9168 489.714 81.4869 484.423 83.988 479.178C91.5113 482.183 99.5134 484.235 107.855 485.167C92.4036 536.16 116.702 591.605 167.704 617.806L174.683 621.392L182.076 618.76C222.395 604.401 259.547 581.359 292.501 550.269C313.801 530.173 332.116 507.94 347.168 484.184C351.681 484.864 356.297 485.221 360.996 485.221C407.804 485.221 446.567 450.227 452.565 405.031C471.725 404.329 492.077 404.324 511.348 405.024C517.342 450.224 556.107 485.221 602.917 485.221C622.489 485.221 640.645 479.087 655.6 468.667C665.984 489.922 669.86 513.838 665.725 537.661ZM118.158 337.229C149.108 337.229 174.284 362.407 174.284 393.355C174.284 404.471 171.023 414.836 165.422 423.566C156.091 438.115 140.237 448.089 122.014 449.333C120.739 449.42 119.455 449.48 118.158 449.48C111.263 449.48 104.655 448.221 98.5467 445.938C86.1898 441.313 75.8933 432.447 69.4165 421.126C64.7281 412.93 62.0329 403.453 62.0329 393.355C62.0329 362.407 87.211 337.229 118.158 337.229ZM304.87 392.821C304.87 364.703 325.655 341.355 352.665 337.318C355.384 336.91 358.166 336.696 360.996 336.696C378.988 336.696 395.007 345.22 405.282 358.428C407.835 361.709 410.05 365.269 411.833 369.071C415.219 376.289 417.121 384.335 417.121 392.821C417.121 397.308 416.577 401.67 415.578 405.855C410.108 428.753 390.583 446.254 366.658 448.662C364.797 448.849 362.908 448.947 360.996 448.947C349.791 448.947 339.351 445.633 330.578 439.953C315.125 429.943 304.87 412.562 304.87 392.821ZM539.118 326.082C527.095 337.586 518.153 352.285 513.7 368.813C492.917 368.033 470.878 368.033 450.215 368.813C445.468 351.196 435.623 335.655 422.381 323.849L480.457 206.416L539.118 326.082ZM288.949 36.2744H671.81L581.383 302.975C577.464 303.916 573.64 305.101 569.929 306.524L480.6 124.296L391.018 305.436C387.146 304.103 383.156 303.029 379.071 302.215L288.949 36.2744ZM659.043 392.821C659.043 398.449 658.201 403.881 656.654 409.011C652.969 421.213 645.235 431.669 635.022 438.819C625.917 445.193 614.85 448.947 602.917 448.947C577.003 448.947 555.142 431.287 548.716 407.371C547.468 402.728 546.792 397.853 546.792 392.821C546.792 385.149 548.342 377.834 551.141 371.169C552.583 367.734 554.382 364.487 556.448 361.437C566.549 346.53 583.594 336.696 602.917 336.696C604.689 336.696 606.438 336.788 608.168 336.95C636.663 339.605 659.043 363.644 659.043 392.821ZM695.317 392.821C695.317 347.71 662.815 310.072 620.006 302.03L722.411 0H238.356L340.916 302.645C299.592 311.84 268.596 348.768 268.596 392.821C268.596 425.9 286.078 454.958 312.277 471.285C299.676 490.06 284.731 507.728 267.607 523.884C240.447 549.507 210.19 568.937 177.571 581.722C144.715 561.084 130.826 522.163 145.25 488.256L146.38 485.599C147.087 483.939 147.795 482.276 148.5 480.613C184.588 468.025 210.559 433.677 210.559 393.355C210.559 342.403 169.108 300.954 118.158 300.954C67.2092 300.954 25.7584 342.403 25.7584 393.355C25.7584 419.071 36.3288 442.359 53.3415 459.127C50.2582 465.698 47.0116 472.382 43.6798 479.225C28.1253 511.174 10.496 547.385 3.82874 587.595C-9.41325 667.453 11.947 731.291 63.9736 767.349C95.545 789.23 127.604 797.833 159.869 797.833C220.621 797.833 282.075 767.311 342.182 737.456C385.47 715.956 430.233 693.721 474.448 682.817C490.898 678.76 507.828 676.319 525.751 673.734C561.291 668.607 598.042 663.307 630.595 644.453C668.329 622.596 694.16 585.934 701.464 543.868C707.734 507.755 700.189 471.584 681.785 440.91C690.364 426.892 695.317 410.425 695.317 392.821Z" fill="white"/>
</svg>
