<svg width="562" height="382" viewBox="0 0 562 382" fill="none" xmlns="http://www.w3.org/2000/svg">
<path d="M134.947 347.273H113.288C112.523 310.716 110.413 276.347 106.965 244.142H106.772L73.7972 347.273H57.3076L24.5293 244.142H24.341C21.9094 275.062 20.3776 309.439 19.7415 347.273H0C1.27229 301.266 4.46977 258.133 9.57986 217.872H36.4236L67.6659 312.955H67.8584L99.2932 217.872H124.978C130.603 265.03 133.926 308.167 134.947 347.273ZM228.875 251.801C220.056 299.654 208.422 334.425 193.983 356.129C182.733 372.836 170.408 381.198 156.986 381.198C153.408 381.198 148.992 380.118 143.761 377.976V366.437C146.318 366.805 149.319 367.015 152.767 367.015C159.037 367.015 164.076 365.29 167.918 361.833C172.513 357.623 174.81 352.89 174.81 347.654C174.81 344.063 173.019 336.722 169.445 325.607L145.677 251.797H166.955L184.014 306.999C187.847 319.534 189.446 328.285 188.806 333.27C198.134 308.355 204.651 281.189 208.363 251.793H228.875V251.801Z" fill="#5D87A1"/>
<path d="M517.17 347.273H455.648V217.872H476.343V331.345H517.17V347.273ZM439.543 350.4L415.754 338.66C417.864 336.928 419.881 335.053 421.697 332.88C431.809 321.003 436.852 303.438 436.852 280.172C436.852 237.362 420.053 215.947 386.442 215.947C369.96 215.947 357.103 221.379 347.909 232.248C337.806 244.134 332.762 261.636 332.762 284.776C332.762 307.523 337.232 324.209 346.176 334.793C354.358 344.381 366.692 349.182 383.185 349.182C389.338 349.182 394.983 348.428 400.127 346.909L431.097 364.939L439.543 350.4ZM362.481 321.38C357.242 312.951 354.622 299.416 354.622 280.754C354.622 248.173 364.52 231.863 384.336 231.863C394.695 231.863 402.287 235.764 407.141 243.548C412.373 251.989 415.005 265.403 415.005 283.805C415.005 316.655 405.099 333.081 385.295 333.081C374.932 333.086 367.34 329.198 362.481 321.38ZM323.743 311.406C323.743 322.38 319.717 331.382 311.673 338.434C303.621 345.457 292.823 348.977 279.293 348.977C266.637 348.977 254.366 344.934 242.488 336.89L248.05 325.778C258.271 330.897 267.524 333.441 275.832 333.441C283.629 333.441 289.722 331.713 294.142 328.285C298.557 324.845 301.19 320.019 301.19 313.917C301.19 306.229 295.828 299.659 285.993 294.155C276.924 289.175 258.785 278.762 258.785 278.762C248.954 271.597 244.033 263.905 244.033 251.232C244.033 240.744 247.703 232.277 255.048 225.836C262.401 219.37 271.889 216.148 283.52 216.148C295.531 216.148 306.45 219.366 316.285 225.736L311.297 236.852C302.885 233.278 294.581 231.49 286.391 231.49C279.757 231.49 274.635 233.085 271.073 236.287C267.482 239.476 265.268 243.556 265.268 248.562C265.268 256.212 270.742 262.867 280.845 268.479C290.036 273.468 308.627 284.06 308.627 284.06C318.709 291.213 323.743 298.834 323.743 311.406Z" fill="#F8981D"/>
<path d="M543.152 174.53C530.638 174.212 520.949 175.472 512.817 178.912C510.47 179.85 506.736 179.85 506.41 182.817C507.678 184.072 507.825 186.098 508.925 187.831C510.8 190.957 514.069 195.163 517.053 197.356C520.33 199.867 523.619 202.353 527.068 204.542C533.149 208.305 540.042 210.493 545.968 214.243C549.421 216.424 552.853 219.245 556.31 221.592C558.009 222.844 559.097 224.874 561.303 225.656V225.179C560.198 223.773 559.884 221.739 558.8 220.174L554.104 215.645C549.567 209.552 543.93 204.232 537.849 199.863C532.844 196.414 521.895 191.727 519.865 185.96L519.547 185.642C522.987 185.32 527.068 184.072 530.337 183.114C535.656 181.712 540.507 182.03 545.964 180.628C548.475 180 550.965 179.213 553.485 178.439V177.029C550.656 174.212 548.638 170.471 545.663 167.809C537.703 160.933 528.93 154.207 519.865 148.578C515.011 145.443 508.766 143.426 503.598 140.76C501.735 139.818 498.596 139.354 497.5 137.789C494.696 134.348 493.118 129.82 491.084 125.748C486.564 117.156 482.174 107.622 478.273 98.5358C475.452 92.4422 473.736 86.357 470.296 80.7195C454.183 54.1437 436.685 38.0475 409.791 22.2485C404.011 18.9589 397.135 17.5569 389.79 15.8326L378.059 15.2132C375.556 14.1167 373.049 11.141 370.865 9.73482C361.942 4.10995 338.97 -8.08146 332.407 8.01472C328.18 18.1889 338.66 28.1914 342.259 33.3518C344.917 36.9343 348.361 41.0106 350.219 45.0786C351.32 47.7362 351.63 50.557 352.73 53.3652C355.233 60.2457 357.573 67.9003 360.862 74.3204C362.578 77.5932 364.449 81.0334 366.642 83.9965C367.897 85.7292 370.082 86.4951 370.559 89.3201C368.379 92.4338 368.207 97.1338 366.956 101.043C361.331 118.708 363.528 140.593 371.501 153.575C373.995 157.484 379.947 166.089 387.907 162.791C394.955 159.978 393.394 151.068 395.419 143.254C395.884 141.367 395.578 140.128 396.516 138.889V139.195C398.696 143.568 400.898 147.783 402.919 152.169C407.77 159.823 416.215 167.8 423.251 173.103C426.996 175.932 429.964 180.77 434.655 182.499V182.03H434.345C433.395 180.628 432.006 180 430.759 178.912C427.938 176.095 424.816 172.655 422.627 169.533C416.073 160.774 410.272 151.077 405.125 141.07C402.605 136.215 400.433 130.908 398.403 126.062C397.457 124.191 397.457 121.37 395.888 120.428C393.536 123.864 390.108 126.84 388.392 131.05C385.417 137.784 385.107 146.067 384.002 154.68L383.387 154.981C378.406 153.73 376.674 148.578 374.782 144.204C370.099 133.097 369.312 115.268 373.376 102.453C374.464 99.1761 379.172 88.8555 377.293 85.7334C376.352 82.741 373.221 81.0376 371.505 78.6814C369.488 75.7183 367.278 71.9683 365.872 68.6788C362.122 59.9276 360.234 50.2306 356.196 41.4836C354.308 37.4072 351.031 33.1885 348.378 29.4344C345.398 25.2158 342.121 22.2443 339.765 17.243C338.986 15.5229 337.894 12.7105 339.145 10.8397C339.451 9.58415 340.087 9.11542 341.334 8.80153C343.36 7.08979 349.148 9.26608 351.178 10.2077C356.974 12.5514 361.821 14.7403 366.659 18.0215C368.848 19.5909 371.195 22.5624 374.004 23.345H377.293C382.286 24.4331 387.915 23.6463 392.615 25.0609C400.898 27.7227 408.402 31.6275 415.131 35.8419C435.609 48.8285 452.497 67.281 463.897 89.3201C465.768 92.911 466.563 96.2005 468.27 99.9462C471.564 107.613 475.636 115.431 478.905 122.935C482.19 130.28 485.321 137.78 490.012 143.882C492.352 147.163 501.752 148.883 505.966 150.604C509.084 152.006 513.939 153.253 516.752 154.973C522.071 158.25 527.369 162.012 532.371 165.616C534.861 167.491 542.687 171.4 543.152 174.53ZM383.671 38.6627C381.513 38.6403 379.361 38.9049 377.272 39.4496V39.7634H377.574C378.833 42.262 381.022 43.9947 382.583 46.1751C383.843 48.682 384.935 51.168 386.17 53.6708L386.471 53.3611C388.677 51.8 389.773 49.2973 389.773 45.5432C388.823 44.4383 388.677 43.3585 387.886 42.262C386.965 40.6967 384.935 39.9183 383.671 38.6627Z" fill="#5D87A1"/>
</svg>
