<svg width="710" height="800" viewBox="0 0 710 800" fill="none" xmlns="http://www.w3.org/2000/svg">
<path d="M354.962 800C344.249 800 333.609 797.19 324.216 791.782L226.351 733.842C211.734 725.667 218.867 722.776 223.688 721.111C243.177 714.286 247.132 712.745 267.935 700.931C270.122 699.684 272.983 700.124 275.221 701.445L350.405 746.059C353.12 747.527 356.973 747.527 359.489 746.059L652.637 576.848C655.352 575.307 657.113 572.152 657.113 568.923V230.648C657.113 227.272 655.352 224.264 652.579 222.576L359.548 53.5114C356.833 51.8971 353.238 51.8971 350.523 53.5114L57.5509 222.576C54.7111 224.19 52.906 227.345 52.906 230.574V568.85C52.906 572.078 54.6671 575.16 57.4555 576.701L137.732 623.077C181.319 644.87 207.955 619.188 207.955 593.358V259.485C207.955 254.716 211.697 251.047 216.467 251.047H253.597C258.22 251.047 262.035 254.716 262.035 259.485V593.505C262.035 651.621 230.336 685.008 175.228 685.008C158.278 685.008 144.923 685.008 107.647 666.664L30.7457 622.343C11.7406 611.336 0 590.79 0 568.85V230.574C0 208.561 11.7406 188.014 30.7457 177.154L324.187 7.86986C342.752 -2.62329 367.407 -2.62329 385.825 7.86986L678.899 177.228C697.831 188.161 709.645 208.634 709.645 230.648V568.923C709.645 590.863 697.831 611.336 678.899 622.343L385.825 791.627C376.433 797.057 365.793 799.846 354.933 799.846L354.962 800ZM445.511 566.905C317.245 566.905 290.352 508.026 290.352 458.642C290.352 453.946 294.138 450.204 298.842 450.204H336.705C340.888 450.204 344.41 453.249 345.071 457.38C350.794 495.963 367.818 515.423 445.379 515.423C507.164 515.423 533.434 501.466 533.434 468.703C533.434 449.844 525.949 435.829 429.97 426.436C349.693 418.512 300.089 400.827 300.089 336.621C300.089 277.478 349.987 242.256 433.565 242.256C527.417 242.256 573.939 274.836 579.809 344.839C580.029 347.261 579.149 349.609 577.534 351.37C575.92 353.058 573.645 354.085 571.297 354.085H533.213C529.251 354.085 525.802 351.297 524.995 347.481C515.823 306.903 493.662 293.915 433.418 293.915C365.983 293.915 358.132 317.396 358.132 335.007C358.132 356.36 367.378 362.597 458.367 374.631C548.476 386.592 591.256 403.469 591.256 466.795C591.256 530.634 537.983 567.25 445.086 567.25L445.511 566.905Z" fill="#689F63"/>
</svg>
