<svg width="774" height="798" viewBox="0 0 774 798" fill="none" xmlns="http://www.w3.org/2000/svg">
<path d="M771.85 477.943C767.199 463.858 755.015 454.045 739.256 451.689C731.826 450.58 723.316 451.053 713.247 453.13C695.697 456.75 682.676 458.128 673.173 458.397C709.041 397.836 738.208 328.774 754.998 263.764C782.148 158.648 767.64 110.761 750.686 89.0987C705.818 31.7679 640.355 0.9669 561.376 0.0227334C519.249 -0.491452 482.262 7.82689 462.97 13.8072C445.005 10.6397 425.689 8.86959 405.42 8.54173C367.433 7.93618 333.866 16.2169 305.185 33.237C289.302 27.8694 263.82 20.2999 234.39 15.468C165.17 4.10397 109.384 12.9598 68.5785 41.7864C19.1665 76.6902 -3.74076 137.332 0.496349 222.029C1.84004 248.921 16.884 330.737 40.5688 408.333C54.1813 452.931 68.6967 489.968 83.712 518.422C105.005 558.771 127.789 582.532 153.367 591.064C167.705 595.842 193.753 599.185 221.152 576.371C224.624 580.574 229.255 584.754 235.406 588.635C243.213 593.56 252.763 597.584 262.297 599.968C296.666 608.561 328.857 606.411 356.32 594.369C356.488 599.253 356.619 603.92 356.73 607.95C356.913 614.487 357.092 620.896 357.332 626.889C358.959 667.418 361.716 698.93 369.886 720.977C370.334 722.192 370.938 724.039 371.575 725.997C375.649 738.478 382.466 759.368 399.804 775.73C417.761 792.677 439.478 797.876 459.369 797.874C469.344 797.874 478.863 796.566 487.21 794.776C516.97 788.4 550.766 778.683 575.214 743.872C598.328 710.962 609.565 661.396 611.598 583.294C611.861 581.087 612.105 578.978 612.34 576.968C612.497 575.612 612.659 574.225 612.822 572.842L618.268 573.32L619.671 573.415C649.981 574.796 687.042 568.368 709.802 557.796C727.788 549.449 785.42 519.024 771.85 477.943Z" fill="black"/>
<path d="M720.025 485.934C629.904 504.523 623.709 474.011 623.709 474.011C718.862 332.819 758.639 153.598 724.312 109.734C630.666 -9.91695 468.559 46.6704 465.854 48.1395L464.983 48.2953C447.178 44.5993 427.252 42.3974 404.858 42.0319C364.079 41.3637 333.147 52.7223 309.676 70.5218C309.676 70.5218 20.4938 -48.6099 33.9433 220.352C36.8044 277.572 115.955 653.302 210.363 539.814C244.869 498.315 278.208 463.227 278.208 463.227C294.768 474.227 314.592 479.839 335.374 477.823L336.989 476.453C336.487 481.605 336.716 486.645 337.635 492.611C313.315 519.784 320.461 524.555 271.843 534.563C222.648 544.701 251.548 562.752 270.417 567.469C293.292 573.189 346.213 581.293 381.972 531.236L380.546 536.947C390.075 544.58 396.767 586.594 395.645 624.68C394.524 662.767 393.775 688.915 401.283 709.339C408.792 729.763 416.275 775.718 480.188 762.023C533.594 750.578 561.269 720.92 565.119 671.449C567.851 636.278 574.034 641.478 574.424 610.033L579.383 595.147C585.102 547.471 580.292 532.09 613.194 539.244L621.19 539.946C645.407 541.048 677.102 536.052 695.704 527.405C735.76 508.816 759.517 477.778 720.021 485.934H720.025Z" fill="#336791"/>
<path d="M326.603 245.941C318.484 244.811 311.127 245.857 307.406 248.674C305.312 250.259 304.665 252.095 304.491 253.36C304.024 256.709 306.371 260.41 307.811 262.32C311.889 267.725 317.848 271.441 323.745 272.26C324.6 272.378 325.449 272.435 326.295 272.435C336.131 272.435 345.071 264.778 345.859 259.126C346.844 252.047 336.568 247.328 326.603 245.941Z" fill="white"/>
<path d="M595.646 246.165C594.872 240.617 584.995 239.035 575.625 240.337C566.269 241.642 557.195 245.864 557.953 251.425C558.562 255.75 566.368 263.133 575.612 263.132C576.392 263.132 577.18 263.08 577.974 262.969C584.144 262.114 588.671 258.196 590.821 255.937C594.098 252.497 595.992 248.659 595.646 246.165Z" fill="white"/>
<path d="M750.015 483.821C746.579 473.43 735.519 470.085 717.143 473.882C662.582 485.142 643.043 477.341 636.625 472.617C679.036 408.009 713.923 329.915 732.744 257.049C741.661 222.534 746.586 190.481 746.987 164.356C747.432 135.676 742.549 114.606 732.475 101.733C691.862 49.8379 632.257 22.002 560.105 21.237C510.503 20.6798 468.594 33.375 460.469 36.9439C443.36 32.6889 424.707 30.0767 404.403 29.7435C367.165 29.1415 334.979 38.0565 308.329 56.2267C296.754 51.9198 266.838 41.6504 230.256 35.7578C167.005 25.5727 116.746 33.289 80.8784 58.6991C38.081 89.02 18.3233 143.219 22.1519 219.788C23.4401 245.551 38.1168 324.798 61.282 400.694C91.7731 500.584 124.916 557.133 159.791 568.764C163.872 570.126 168.58 571.079 173.769 571.079C186.491 571.079 202.086 565.344 218.315 545.835C245.269 513.408 270.436 486.235 279.712 476.361C293.422 483.721 308.48 487.829 323.886 488.241C323.913 488.644 323.954 489.048 323.99 489.449C320.899 493.114 318.364 496.327 316.203 499.07C305.531 512.618 303.309 515.438 268.954 522.513C259.183 524.528 233.224 529.878 232.846 548.071C232.432 567.949 263.525 576.298 267.069 577.183C279.415 580.273 291.308 581.798 302.65 581.798C330.237 581.796 354.511 572.731 373.912 555.189C373.314 626.056 376.27 695.886 384.778 717.163C391.746 734.579 408.771 777.147 462.549 777.144C470.438 777.144 479.125 776.226 488.68 774.179C544.803 762.145 569.174 737.34 578.603 682.654C583.648 653.427 592.307 583.634 596.377 546.199C604.972 548.879 616.036 550.107 627.997 550.105C652.943 550.105 681.727 544.805 699.779 536.426C720.056 527.009 756.651 503.898 750.015 483.821ZM616.361 230.849C616.174 241.902 614.653 251.934 613.041 262.408C611.307 273.672 609.511 285.317 609.06 299.455C608.614 313.212 610.332 327.516 611.995 341.347C615.352 369.285 618.797 398.049 605.459 426.431C603.386 422.75 601.385 418.733 599.55 414.285C597.893 410.266 594.294 403.811 589.311 394.876C569.919 360.102 524.51 278.667 547.755 245.436C554.678 235.543 572.25 225.376 616.361 230.849ZM562.894 43.6175C627.542 45.0454 678.679 69.2301 714.887 115.496C742.657 150.984 712.078 312.46 623.554 451.765C622.68 450.654 621.789 449.532 620.868 448.382C620.501 447.922 620.127 447.454 619.749 446.981C642.624 409.202 638.15 371.824 634.169 338.683C632.533 325.083 630.989 312.237 631.381 300.173C631.788 287.381 633.479 276.415 635.113 265.808C637.125 252.737 639.169 239.214 638.605 223.271C639.026 221.599 639.196 219.623 638.976 217.278C637.536 201.989 620.082 156.237 584.504 114.821C565.046 92.1714 536.666 66.8222 497.917 49.7251C514.584 46.2709 537.377 43.0496 562.894 43.6175ZM201.142 531.557C183.264 553.052 170.916 548.933 166.857 547.58C140.4 538.755 109.705 482.841 82.6413 394.174C59.2235 317.453 45.5375 240.305 44.4554 218.672C41.0353 150.255 57.62 102.572 93.751 76.9482C152.551 35.249 249.225 60.2076 288.07 72.867C287.511 73.417 286.931 73.933 286.377 74.492C222.634 138.869 224.146 248.858 224.302 255.58C224.297 258.175 224.514 261.847 224.813 266.9C225.909 285.398 227.95 319.828 222.498 358.821C217.43 395.054 228.598 430.518 253.136 456.12C255.676 458.77 258.328 461.258 261.067 463.6C250.144 475.297 226.407 501.162 201.142 531.557ZM269.26 440.667C249.483 420.034 240.502 391.331 244.615 361.913C250.373 320.722 248.247 284.849 247.106 265.577C246.946 262.881 246.805 260.518 246.72 258.653C256.033 250.397 299.187 227.273 329.961 234.325C344.007 237.543 352.562 247.104 356.12 263.555C374.534 348.714 358.558 384.209 345.722 412.731C343.075 418.608 340.576 424.162 338.441 429.909L336.787 434.35C332.598 445.582 328.702 456.023 326.287 465.94C305.264 465.875 284.811 456.896 269.26 440.667ZM272.487 555.517C266.349 553.984 260.827 551.319 257.588 549.11C260.293 547.837 265.109 546.106 273.46 544.386C313.876 536.064 320.116 530.193 333.747 512.886C336.873 508.92 340.415 504.421 345.32 498.942L345.326 498.935C352.634 490.755 355.975 492.142 362.036 494.655C366.948 496.689 371.732 502.845 373.672 509.62C374.59 512.82 375.621 518.895 372.248 523.62C343.774 563.486 302.285 562.974 272.487 555.517ZM483.998 752.343C434.556 762.936 417.05 737.709 405.514 708.87C398.068 690.25 394.41 606.291 397.006 513.574C397.04 512.34 396.864 511.149 396.524 510.029C396.228 507.866 395.773 505.679 395.143 503.477C391.28 489.986 381.872 478.701 370.585 474.023C366.101 472.165 357.869 468.756 347.977 471.286C350.088 462.595 353.746 452.782 357.711 442.154L359.375 437.683C361.249 432.643 363.598 427.422 366.085 421.897C379.518 392.053 397.916 351.178 377.949 258.834C370.469 224.247 345.494 207.358 307.633 211.28C284.933 213.628 264.169 222.787 253.811 228.038C251.584 229.167 249.547 230.256 247.645 231.319C250.535 196.469 261.458 131.343 302.313 90.1379C328.035 64.1957 362.294 51.3841 404.034 52.0738C486.277 53.4211 539.016 95.6273 568.78 130.798C594.426 161.106 608.315 191.635 613.858 208.1C572.177 203.863 543.828 212.091 529.456 232.635C498.193 277.325 546.56 364.066 569.806 405.753C574.068 413.394 577.748 419.996 578.906 422.802C586.475 441.148 596.275 453.395 603.431 462.337C605.624 465.076 607.752 467.733 609.37 470.053C596.746 473.694 574.07 482.101 576.136 524.134C574.47 545.226 562.617 643.971 556.597 678.859C548.649 724.949 531.689 742.118 483.998 752.343ZM690.375 516.17C677.466 522.163 655.863 526.658 635.341 527.622C612.674 528.685 601.136 525.083 598.422 522.869C597.146 496.676 606.898 493.939 617.215 491.042C618.837 490.585 620.419 490.142 621.945 489.608C622.895 490.38 623.934 491.147 625.071 491.898C643.29 503.923 675.786 505.22 721.66 495.752C721.828 495.716 721.996 495.684 722.163 495.649C715.977 501.435 705.388 509.199 690.375 516.17Z" fill="white"/>
</svg>
