<svg width="750" height="668" viewBox="0 0 750 668" fill="none" xmlns="http://www.w3.org/2000/svg">
<path d="M332.7 489.175C346.45 489.8 360.5 490.25 374.725 490.25C389.1 490.25 403.3 489.95 417.225 489.175C403.3 507.175 389.55 523.1 375 538.275L375.2 538.075C360.725 523.075 346.825 507.125 333.725 490.525L332.7 489.175ZM190.25 469.175C217.325 476.05 250.35 481.9 284.05 485.5L287.325 485.775C307.95 514.1 328.8 539.025 351.175 562.475L350.9 562.175C318.125 598.75 273.9 624.45 223.875 633.675L222.5 633.875C222.4 633.875 222.3 633.875 222.2 633.875C216 633.875 210.15 632.35 205.025 629.65L205.225 629.75C184.425 617.875 175.4 572.45 182.425 514.075C184.1 499.7 186.85 484.575 190.225 469.15L190.25 469.175ZM559.825 468.85C562.775 480.7 565.55 495.8 567.525 511.15L567.75 513.3C574.925 571.65 566.075 617.025 545.45 629.15C540.85 631.7 535.35 633.2 529.5 633.2C528.925 633.2 528.35 633.175 527.775 633.15H527.85C476.525 623.775 432.325 598.25 399.625 562.125L399.45 561.925C421.425 538.85 442.125 513.975 461.1 487.8L462.55 485.7C499.45 481.85 532.525 475.9 564.75 467.775L559.825 468.825V468.85ZM219.475 375.55C225.725 387.8 232.275 400 239.475 412.25C246.658 424.433 254 436.333 261.5 447.95C239.8 444.775 218.85 440.775 198.825 435.9C204.45 416.225 211.5 395.85 219.45 375.5L219.475 375.55ZM530.175 374.925C538.45 395.45 545.475 415.925 551.3 435.775C531.3 440.675 510.175 444.825 488.325 447.95C495.825 436.225 503.325 424.15 510.35 411.775C517.375 399.6 523.95 387.15 530.225 374.9L530.175 374.925ZM165.35 241.2C176.25 278.15 187.95 309.05 201.575 338.85L199.7 334.3C188.05 359.425 176.525 390.15 167.075 421.775L165.775 426.9C148.125 421.475 133.925 416.15 120.1 410.175L122.975 411.275C68.875 388.25 33.875 357.975 33.875 333.975C33.875 309.975 68.875 279.55 122.975 256.625C136.1 251 150.5 245.925 165.35 241.2ZM583.825 241.075C598.95 245.75 613.325 250.975 626.775 256.625C680.875 279.75 715.875 309.975 715.875 333.975C715.725 357.975 680.725 388.325 626.625 411.3C613.5 416.925 599.125 421.975 584.3 426.7C573.3 389.625 561.6 358.75 548.025 328.9L549.925 333.6C561.525 308.5 573.075 277.775 582.5 246.15L583.825 241V241.075ZM488.125 220C509.85 223.225 530.775 227.175 550.8 232.1C545.175 251.85 538.15 272.15 530.175 292.5C523.925 280.325 517.375 268.05 510.175 255.825C503.15 243.575 495.65 231.65 488.15 220.025L488.125 220ZM261.325 220C253.825 231.775 246.325 243.825 239.325 256.25C232.3 268.425 225.725 280.675 219.475 292.925C211.2 272.425 204.175 252 198.35 232.1C218.35 227.425 239.425 223.25 261.3 220.05L261.325 220ZM374.875 212.05C398 212.05 421.025 213.1 443.675 214.95C456.358 233.133 468.675 252.5 480.625 273.05C492.242 293.05 502.842 313.317 512.425 333.85C502.8 354.325 492.25 374.775 480.775 394.775C468.9 415.4 456.625 435.025 443.9 453.2C421.15 455.175 398.1 456.25 374.85 456.25C351.725 456.25 328.7 455.15 306.05 453.35C293.375 435.175 281 415.725 269.1 395.25C257.483 375.25 246.883 354.983 237.3 334.45C246.775 313.925 257.475 293.425 268.95 273.4C280.825 252.775 293.1 233.225 305.825 215.05C328.575 213.05 351.625 212 374.875 212V212.05ZM374.4 130.025C388.9 145.025 402.8 160.95 415.875 177.55L416.875 178.875C403.125 178.25 389.075 177.825 374.85 177.825C360.475 177.825 346.275 178.125 332.35 178.875C346.25 160.875 360 144.95 374.575 129.775L374.375 129.975L374.4 130.025ZM221.875 34.725C273.2 44.125 317.375 69.65 350.1 105.75L350.275 105.95C328.3 129.05 307.6 153.925 288.625 180.15L287.175 182.25C250.3 186.075 217.225 191.975 185.025 200.1L189.925 199.05C186.425 183.75 183.825 168.925 182 154.7C174.825 96.35 183.675 50.975 204.3 38.9C209.45 36.475 215.475 34.975 221.825 34.775H221.9L221.875 34.725ZM527.125 34.1V34.3C527.45 34.3 527.825 34.275 528.225 34.275C534.2 34.275 539.825 35.75 544.775 38.35L544.575 38.25C565.375 50.175 574.4 95.575 567.375 153.975C565.7 168.35 562.95 183.5 559.575 198.95C532.45 192 499.425 186.125 465.725 182.55L462.525 182.275C441.875 153.925 421.025 129 398.65 105.525L398.95 105.825C431.725 69.325 475.875 43.625 525.8 34.35L527.2 34.125L527.125 34.1ZM527.275 0.0499964C466.225 9.325 413.375 38.975 374.775 81.75L374.575 81.975C335.7 39.225 282.85 9.775 223.3 0.849998L221.9 0.674999C221.575 0.674999 221.175 0.674999 220.775 0.674999C208.5 0.674999 196.975 3.9 187 9.55L187.35 9.375C144.4 34.15 134.775 111.35 156.95 208.225C61.85 237.6 0 284.55 0 334.025C0 383.7 62.175 430.775 157.55 459.925C135.55 557.175 145.375 634.5 188.425 659.25C197.875 664.675 209.225 667.85 221.3 667.85C221.85 667.85 222.4 667.85 222.925 667.825H222.85C283.9 658.55 336.75 628.875 375.35 586.075L375.55 585.85C414.425 628.625 467.275 658.075 526.825 667L528.225 667.175C528.6 667.175 529.075 667.175 529.525 667.175C541.725 667.175 553.2 663.975 563.125 658.4L562.775 658.575C605.7 633.825 615.35 556.625 593.175 459.725C687.925 430.6 749.775 383.55 749.775 334C749.775 284.325 687.6 237.25 592.225 208.025C614.225 110.875 604.4 33.475 561.35 8.7C551.8 3.225 540.35 0 528.15 0C527.825 0 527.5 0 527.175 0H527.225L527.275 0.0499964ZM444.55 334.025C444.55 372.6 413.275 403.875 374.7 403.875C336.125 403.875 304.85 372.6 304.85 334.025C304.85 295.45 336.125 264.175 374.7 264.175C394 264.175 411.45 272 424.1 284.625C436.75 297.275 444.55 314.725 444.55 334.025Z" fill="#5FA1DE"/>
</svg>
