<svg width="999" height="412" viewBox="0 0 999 412" fill="none" xmlns="http://www.w3.org/2000/svg">
<path d="M674.908 0L671.786 15.3772C666.957 44.5193 668.706 52.8568 681.942 63.672L694.721 73.6613L681.484 129.428C673.576 162.7 663.877 190.583 657.717 199.747C652.43 207.652 646.27 219.293 644.938 225.546C642.732 233.018 635.239 240.53 623.792 247.176C613.677 252.604 593.822 267.155 579.753 278.835C568.514 288.392 560.772 294.252 556.568 296.769L542.832 307.034C538.419 313.719 535.922 319.107 534.965 323.197C534.007 327.405 534.548 330.198 535.964 332.243C537.337 334.209 539.71 335.586 542.956 336.451C546.8 337.302 550.756 337.607 554.695 337.355C563.605 336.78 572.425 335.304 581.002 332.951C583.916 332.203 586.205 331.496 588.203 330.866C591.283 327.287 598.401 320.523 611.013 308.764C644.48 277.577 657.259 260.509 644.064 265.11C639.193 266.762 641.4 262.593 649.766 254.255C667.415 238.013 677.53 213.472 698.676 136.507C715.409 75.7457 715.409 74.8805 727.73 74.8805C733.516 74.8805 749.874 75.8243 749.874 75.8243V0H712.329H674.908ZM834.706 124.473C832.042 124.473 827.63 128.249 825.007 132.417C820.179 139.89 825.882 144.452 898.559 187.319C941.724 213.158 976.522 235.181 975.648 236.872C974.774 238.092 939.518 259.761 897.268 284.735C820.595 329.647 820.179 330.08 827.214 339.243C836.038 350.058 827.214 353.795 926.739 295.117L999 251.424V218.546L918.372 171.509C874.791 145.71 836.912 124.906 834.706 124.473ZM165.168 129.074C162.962 129.074 125.083 150.312 81.5017 175.678L0 222.714V255.593L81.0439 303.455C125.999 329.647 163.878 351.317 165.626 351.317C167.374 351.317 170.912 347.541 174.45 342.979C179.737 335.074 175.283 331.732 100.857 287.212C29.97 245.171 22.4775 239.35 29.5537 234.788C33.966 231.878 67.4325 212.292 103.563 191.095C185.939 143.233 181.527 146.536 174.908 136.547C172.286 132.417 167.832 128.681 165.21 129.074H165.168ZM526.64 129.979C514.485 129.9 488.345 147.401 410.09 207.77C406.718 215.36 406.426 220.591 407.967 223.973C408.966 226.293 410.797 227.906 413.336 229.085C415.834 230.265 419.081 230.973 422.66 231.249C429.778 231.838 438.186 230.777 444.971 229.518L449.55 228.535C451.117 226.549 453.175 224.956 455.544 223.894C460.373 221.377 480.644 203.916 500.915 185.195C536.588 151.059 544.955 135.642 530.427 130.648C529.236 130.2 527.922 129.973 526.64 129.979ZM618.048 153.694C607.35 153.969 588.078 165.689 555.069 190.583C538.503 203.286 528.013 210.129 522.394 211.545L500.582 227.827C492.382 241.985 491.175 250.755 493.34 255.593C493.881 256.786 494.668 257.866 495.654 258.77C496.64 259.675 497.805 260.386 499.084 260.863C502.264 262.049 505.655 262.65 509.074 262.632C517.244 262.55 525.365 261.426 533.216 259.289C537.308 258.252 541.35 257.045 545.329 255.671L546.536 255.199L548.742 254.098C552.905 249.025 562.479 239.468 574.467 228.456C612.345 193.926 631.701 169.386 627.747 160.222C625.957 155.778 622.876 153.536 618.048 153.694ZM517.149 196.168C514.069 196.483 507.159 201.517 494.713 211.821C476.731 226.844 457.126 235.496 450.341 231.642C448.764 231.978 447.182 232.293 445.596 232.586C438.686 233.884 430.07 234.945 422.369 234.355C418.741 234.148 415.184 233.308 411.879 231.878C408.762 230.531 406.275 228.153 404.886 225.192C403.346 221.653 403.346 217.248 405.095 211.624L378.038 232.625L316.808 280.487V358.081L517.44 208.753C517.401 207.118 517.626 205.487 518.106 203.916C519.646 198.646 519.563 195.971 517.149 196.207V196.168ZM603.479 221.299C600.441 221.299 595.362 225.349 587.245 233.49C576.215 244.62 558.857 255.396 549.658 257.598L548.243 258.306C546.733 258.895 545.206 259.446 543.664 259.958C541.167 260.745 537.92 261.688 534.174 262.632C526.681 264.559 517.357 266.329 509.032 266.132C505.107 266.128 501.221 265.407 497.585 264.009C494.159 262.674 491.413 260.137 489.926 256.93C487.512 251.463 488.469 243.794 493.756 232.9L316.766 364.61V412H394.522L559.44 289.611C563.727 285.128 570.179 278.993 578.879 271.324C602.189 250.913 607.475 243.873 607.475 233.451C607.475 225.349 606.518 221.259 603.479 221.259V221.299ZM642.732 297.988L628.621 311.281C620.712 318.36 606.601 327.091 596.944 330.827L595.029 331.614L594.904 331.81L594.488 332.203C594.114 332.479 593.947 332.518 593.656 332.636C589.801 334.015 585.884 335.235 581.917 336.294C573.098 338.719 564.026 340.236 554.861 340.816C550.528 341.079 546.178 340.721 541.958 339.754C538.295 338.993 535.062 336.975 532.883 334.091C530.885 331.181 530.303 327.287 531.426 322.489C532.32 319.074 533.648 315.772 535.381 312.657L402.306 412H579.295L600.441 389.111C629.495 357.098 642.732 334.209 642.732 314.624V297.988Z" fill="#EF7D7D"/>
</svg>
