<svg width="624" height="411" viewBox="0 0 624 411" fill="none" xmlns="http://www.w3.org/2000/svg">
<path d="M521.536 3.68939C542.817 8.64036 562.156 19.7841 577.111 35.7144C585.349 44.3359 592.502 53.9321 598.411 64.2894C598.686 65.4144 560.061 91.3644 536.636 105.839C535.786 106.414 532.411 102.739 528.586 97.0894C524.306 89.7337 518.233 83.5826 510.932 79.2107C503.631 74.8388 495.34 72.3887 486.836 72.0894C459.911 70.2394 442.561 84.3394 442.686 107.914C442.453 113.706 443.774 119.455 446.511 124.564C452.436 136.814 463.436 144.164 497.986 159.139C561.586 186.514 588.886 204.564 605.736 230.214C615.26 246.421 621.126 264.514 622.923 283.226C624.719 301.938 622.403 320.817 616.136 338.539C607.523 357.975 593.865 374.751 576.579 387.127C559.293 399.502 539.01 407.025 517.836 408.914C495.328 411.496 472.586 411.261 450.136 408.214C415.748 402.564 384.071 386.059 359.736 361.114C350.541 350.761 342.757 339.236 336.586 326.839C339.18 324.909 341.913 323.171 344.761 321.639C348.711 319.389 363.661 310.789 377.761 302.614L403.361 287.614L408.711 295.414C417.722 308.3 429.192 319.278 442.461 327.714C455.862 335.065 471.041 338.548 486.306 337.775C501.57 337.003 516.32 332.005 528.911 323.339C535.405 317.009 539.465 308.596 540.379 299.573C541.294 290.55 539.004 281.493 533.911 273.989C527.011 264.114 512.911 255.814 472.836 238.439C441.412 227.843 412.79 210.281 389.111 187.064C377.834 174.214 369.506 159.051 364.711 142.639C361.165 123.944 360.642 104.801 363.161 85.9394C367.865 64.2354 379.128 44.5023 395.424 29.4142C411.719 14.3261 432.259 4.61242 454.261 1.5894C476.664 -1.0877 499.343 -0.379793 521.536 3.68939ZM312.961 40.7644L313.236 77.1144H197.486V405.814H115.861V77.1894H0.110793V41.4894C-0.197052 29.2636 0.136739 17.0302 1.11079 4.83938C1.53579 4.26438 71.9108 3.98938 157.236 4.13938L312.511 4.56439L312.961 40.7644Z" fill="#007ACC"/>
</svg>
