<svg width="604" height="628" viewBox="0 0 604 628" fill="none" xmlns="http://www.w3.org/2000/svg">
<rect x="1" y="1" width="602" height="626" fill="#F4EEF5" fill-opacity="0.8" stroke="#581569" stroke-width="2"/>
<path fill-rule="evenodd" clip-rule="evenodd" d="M177.295 290.15C170.816 289.109 164.031 289.313 157.504 290.754L157.281 290.079C163.932 288.611 170.849 288.402 177.459 289.464L177.295 290.15ZM124.991 317.526C123.316 322.742 123.079 328.154 124.293 333.332L123.454 333.464C122.216 328.181 122.458 322.663 124.165 317.348L124.991 317.526ZM157.003 359.881C163.173 360.809 169.606 360.613 175.818 359.301L176.031 359.978C169.701 361.315 163.143 361.515 156.848 360.568L157.003 359.881ZM208.677 332.813C210.419 327.616 210.73 322.214 209.595 317.033L210.435 316.91C211.593 322.195 211.276 327.703 209.5 332.998L208.677 332.813Z" fill="#2C0839"/>
<path fill-rule="evenodd" clip-rule="evenodd" d="M113.187 308.57C112.022 307.612 112.026 306.063 113.196 305.11L142.856 280.945C144.026 279.992 145.919 279.995 147.084 280.953L158.534 290.364L157.929 290.857L146.479 281.446C145.646 280.762 144.294 280.76 143.459 281.44L113.799 305.605C112.963 306.286 112.96 307.393 113.792 308.077L125.242 317.488L124.637 317.981L113.187 308.57Z" fill="#2C0839"/>
<path fill-rule="evenodd" clip-rule="evenodd" d="M186.711 369C187.876 369.957 189.769 369.961 190.939 369.008L220.297 345.089C221.467 344.136 221.471 342.587 220.306 341.629L208.855 332.218L208.25 332.711L219.701 342.123C220.533 342.807 220.53 343.913 219.694 344.594L190.337 368.512C189.501 369.193 188.149 369.191 187.317 368.507L175.866 359.096L175.261 359.589L186.711 369Z" fill="#2C0839"/>
<path fill-rule="evenodd" clip-rule="evenodd" d="M145.94 369.668C144.77 370.622 142.877 370.618 141.712 369.661L112.483 345.637C111.318 344.68 111.322 343.131 112.492 342.178L123.993 332.807L124.596 333.303L113.095 342.673C112.259 343.354 112.256 344.46 113.088 345.144L142.317 369.168C143.149 369.852 144.501 369.854 145.337 369.173L156.838 359.803L157.441 360.298L145.94 369.668Z" fill="#2C0839"/>
<path fill-rule="evenodd" clip-rule="evenodd" d="M221.604 308.023C222.774 307.07 222.778 305.521 221.613 304.563L192.384 280.54C191.219 279.582 189.326 279.579 188.156 280.532L176.655 289.902L177.258 290.398L188.759 281.027C189.595 280.347 190.947 280.349 191.779 281.033L221.008 305.056C221.84 305.74 221.837 306.847 221.001 307.528L209.5 316.898L210.103 317.393L221.604 308.023Z" fill="#2C0839"/>
<path fill-rule="evenodd" clip-rule="evenodd" d="M174.257 300.796C169.769 300.093 165.063 300.254 160.531 301.272L160.379 300.805C164.997 299.768 169.795 299.603 174.375 300.32L174.257 300.796ZM137.869 319.931C136.685 323.552 136.498 327.306 137.317 330.893L136.735 330.987C135.899 327.327 136.09 323.5 137.297 319.81L137.869 319.931ZM159.886 349.209C164.16 349.834 168.622 349.68 172.936 348.752L173.081 349.221C168.685 350.166 164.136 350.324 159.776 349.686L159.886 349.209ZM195.836 330.29C197.067 326.681 197.305 322.934 196.54 319.345L197.124 319.257C197.904 322.919 197.661 326.739 196.406 330.416L195.836 330.29Z" fill="#2C0839"/>
<path fill-rule="evenodd" clip-rule="evenodd" d="M129.722 313.754C128.918 313.093 128.927 312.019 129.743 311.355L150.415 294.513C151.231 293.848 152.543 293.845 153.347 294.506L161.247 300.999L160.825 301.342L152.925 294.849C152.351 294.378 151.413 294.38 150.831 294.854L130.159 311.697C129.576 312.171 129.569 312.938 130.144 313.41L138.044 319.903L137.622 320.247L129.722 313.754Z" fill="#2C0839"/>
<path fill-rule="evenodd" clip-rule="evenodd" d="M180.448 355.446C181.251 356.107 182.564 356.104 183.38 355.439L203.841 338.769C204.656 338.105 204.666 337.03 203.862 336.37L195.962 329.877L195.54 330.221L203.44 336.714C204.014 337.185 204.008 337.953 203.425 338.427L182.964 355.098C182.381 355.572 181.444 355.574 180.87 355.103L172.97 348.61L172.548 348.953L180.448 355.446Z" fill="#2C0839"/>
<path fill-rule="evenodd" clip-rule="evenodd" d="M152.171 356.027C151.356 356.692 150.043 356.695 149.24 356.034L129.074 339.46C128.27 338.799 128.28 337.725 129.095 337.061L137.111 330.53L137.527 330.872L129.511 337.402C128.928 337.877 128.922 338.644 129.496 339.116L149.661 355.69C150.236 356.162 151.173 356.16 151.756 355.685L159.771 349.155L160.187 349.497L152.171 356.027Z" fill="#2C0839"/>
<path fill-rule="evenodd" clip-rule="evenodd" d="M204.907 313.062C205.722 312.398 205.732 311.324 204.928 310.663L184.762 294.089C183.959 293.428 182.646 293.431 181.831 294.096L173.815 300.626L174.231 300.968L182.246 294.437C182.829 293.963 183.767 293.961 184.341 294.432L204.506 311.007C205.08 311.479 205.074 312.246 204.491 312.72L196.475 319.251L196.891 319.593L204.907 313.062Z" fill="#2C0839"/>
<path fill-rule="evenodd" clip-rule="evenodd" d="M179.252 335.13C186.285 329.4 186.419 320.217 179.609 314.62C172.798 309.022 161.576 309.091 154.543 314.822C147.509 320.552 147.375 329.735 154.186 335.333C160.996 340.93 172.218 340.861 179.252 335.13ZM179.854 335.626C187.209 329.634 187.37 320.008 180.214 314.127C173.058 308.245 161.295 308.334 153.94 314.327C146.585 320.319 146.424 329.944 153.58 335.826C160.736 341.707 172.5 341.618 179.854 335.626Z" fill="#2C0839"/>
<path fill-rule="evenodd" clip-rule="evenodd" d="M165.238 249.846C166.691 248.545 169.198 248.555 170.635 249.868L251.918 324.149C253.211 325.331 253.148 327.136 251.773 328.255L170.491 394.431C169.082 395.579 166.809 395.588 165.385 394.452L82.4519 328.275C81.0435 327.151 80.9788 325.314 82.3058 324.126L165.238 249.846ZM168.312 251.574C168.106 251.387 167.748 251.385 167.541 251.571L84.6081 325.851C84.4185 326.021 84.4277 326.283 84.6289 326.444L167.562 392.621C167.766 392.783 168.09 392.782 168.292 392.618L249.574 326.442C249.77 326.282 249.779 326.024 249.595 325.855L168.312 251.574Z" fill="black"/>
<path fill-rule="evenodd" clip-rule="evenodd" d="M177.295 410.373C170.816 409.332 164.031 409.536 157.504 410.977L157.281 410.302C163.932 408.834 170.849 408.625 177.459 409.687L177.295 410.373ZM124.991 437.749C123.316 442.965 123.079 448.377 124.293 453.555L123.454 453.687C122.216 448.404 122.458 442.886 124.165 437.571L124.991 437.749ZM157.003 480.104C163.173 481.032 169.606 480.836 175.818 479.524L176.031 480.201C169.701 481.538 163.143 481.738 156.848 480.791L157.003 480.104ZM208.677 453.036C210.419 447.839 210.73 442.437 209.595 437.256L210.435 437.132C211.593 442.418 211.276 447.926 209.5 453.221L208.677 453.036Z" fill="black"/>
<path fill-rule="evenodd" clip-rule="evenodd" d="M113.186 428.793C112.021 427.836 112.025 426.287 113.195 425.333L142.856 401.168C144.026 400.215 145.918 400.218 147.083 401.176L158.534 410.587L157.929 411.08L146.478 401.669C145.646 400.985 144.294 400.983 143.458 401.664L113.798 425.829C112.962 426.51 112.959 427.616 113.791 428.3L125.242 437.711L124.637 438.204L113.186 428.793Z" fill="black"/>
<path fill-rule="evenodd" clip-rule="evenodd" d="M186.711 489.223C187.876 490.18 189.769 490.184 190.939 489.231L220.297 465.312C221.467 464.359 221.471 462.81 220.306 461.852L208.855 452.441L208.25 452.934L219.701 462.346C220.533 463.029 220.53 464.136 219.694 464.817L190.336 488.735C189.501 489.416 188.149 489.414 187.317 488.73L175.866 479.319L175.261 479.812L186.711 489.223Z" fill="black"/>
<path fill-rule="evenodd" clip-rule="evenodd" d="M145.94 489.892C144.77 490.845 142.877 490.841 141.712 489.884L112.483 465.86C111.318 464.903 111.322 463.354 112.492 462.401L123.993 453.031L124.596 453.526L113.095 462.896C112.259 463.577 112.256 464.683 113.088 465.367L142.317 489.391C143.149 490.075 144.501 490.077 145.337 489.396L156.838 480.026L157.441 480.521L145.94 489.892Z" fill="black"/>
<path fill-rule="evenodd" clip-rule="evenodd" d="M221.603 428.246C222.773 427.293 222.778 425.744 221.613 424.786L192.384 400.763C191.219 399.805 189.326 399.802 188.156 400.755L176.655 410.125L177.257 410.621L188.758 401.251C189.594 400.57 190.946 400.572 191.778 401.256L221.007 425.28C221.839 425.964 221.836 427.07 221.001 427.751L209.5 437.121L210.102 437.616L221.603 428.246Z" fill="black"/>
<path fill-rule="evenodd" clip-rule="evenodd" d="M174.257 421.019C169.769 420.316 165.063 420.477 160.53 421.495L160.379 421.028C164.997 419.991 169.795 419.826 174.374 420.543L174.257 421.019ZM137.869 440.154C136.685 443.775 136.497 447.529 137.317 451.116L136.735 451.21C135.899 447.55 136.09 443.723 137.297 440.033L137.869 440.154ZM159.885 469.432C164.16 470.057 168.622 469.903 172.935 468.975L173.081 469.444C168.685 470.389 164.136 470.547 159.775 469.909L159.885 469.432ZM195.836 450.513C197.067 446.904 197.305 443.157 196.54 439.568L197.124 439.48C197.904 443.142 197.66 446.962 196.406 450.639L195.836 450.513Z" fill="black"/>
<path fill-rule="evenodd" clip-rule="evenodd" d="M129.721 433.977C128.917 433.317 128.927 432.243 129.742 431.578L150.415 414.736C151.23 414.072 152.543 414.068 153.346 414.729L161.246 421.222L160.825 421.566L152.925 415.073C152.35 414.601 151.413 414.603 150.83 415.078L130.158 431.92C129.576 432.395 129.569 433.162 130.143 433.634L138.043 440.127L137.621 440.47L129.721 433.977Z" fill="black"/>
<path fill-rule="evenodd" clip-rule="evenodd" d="M180.448 475.67C181.251 476.33 182.564 476.327 183.379 475.663L203.841 458.992C204.656 458.328 204.666 457.254 203.862 456.593L195.962 450.1L195.54 450.444L203.44 456.937C204.014 457.409 204.007 458.176 203.425 458.651L182.964 475.321C182.381 475.796 181.444 475.798 180.869 475.326L172.969 468.833L172.548 469.177L180.448 475.67Z" fill="black"/>
<path fill-rule="evenodd" clip-rule="evenodd" d="M152.171 476.25C151.356 476.915 150.043 476.918 149.24 476.257L129.074 459.683C128.27 459.022 128.28 457.948 129.095 457.284L137.111 450.753L137.527 451.095L129.511 457.625C128.928 458.1 128.922 458.867 129.496 459.339L149.661 475.913C150.236 476.385 151.173 476.383 151.756 475.909L159.771 469.378L160.187 469.72L152.171 476.25Z" fill="black"/>
<path fill-rule="evenodd" clip-rule="evenodd" d="M204.907 433.285C205.722 432.621 205.732 431.547 204.928 430.886L184.762 414.312C183.959 413.651 182.646 413.654 181.831 414.319L173.815 420.849L174.231 421.191L182.246 414.66C182.829 414.186 183.766 414.184 184.34 414.656L204.506 431.23C205.08 431.702 205.074 432.469 204.491 432.944L196.475 439.474L196.891 439.816L204.907 433.285Z" fill="black"/>
<path fill-rule="evenodd" clip-rule="evenodd" d="M179.252 455.354C186.285 449.623 186.419 440.441 179.609 434.843C172.798 429.246 161.576 429.315 154.543 435.045C147.509 440.776 147.375 449.959 154.186 455.556C160.996 461.153 172.218 461.084 179.252 455.354ZM179.854 455.849C187.209 449.857 187.37 440.232 180.214 434.35C173.058 428.468 161.295 428.558 153.94 434.55C146.585 440.542 146.424 450.168 153.58 456.049C160.736 461.931 172.5 461.841 179.854 455.849Z" fill="black"/>
<path fill-rule="evenodd" clip-rule="evenodd" d="M165.231 371.339C166.684 370.037 169.19 370.047 170.627 371.361L250.484 444.338C251.778 445.52 251.714 447.325 250.34 448.444L170.484 513.459C169.074 514.607 166.802 514.616 165.378 513.48L83.8997 448.464C82.4913 447.34 82.4266 445.503 83.7535 444.315L165.231 371.339ZM169.853 371.929C168.826 370.991 167.036 370.984 165.998 371.914L84.521 444.89C83.5731 445.739 83.6193 447.051 84.6253 447.854L166.104 512.87C167.121 513.681 168.744 513.674 169.751 512.855L249.606 447.84C250.588 447.04 250.634 445.751 249.71 444.907L169.853 371.929Z" fill="black"/>
<path fill-rule="evenodd" clip-rule="evenodd" d="M164.463 370.764C166.331 369.09 169.554 369.104 171.401 370.792L251.258 443.769C252.921 445.289 252.839 447.61 251.072 449.049L171.217 514.064C169.404 515.539 166.482 515.551 164.652 514.091L83.1735 449.075C81.3627 447.63 81.2795 445.268 82.9856 443.74L164.463 370.764ZM169.078 372.498C168.462 371.936 167.388 371.931 166.765 372.489L85.2879 445.465C84.7192 445.974 84.747 446.762 85.3506 447.243L166.829 512.259C167.439 512.746 168.413 512.742 169.017 512.25L248.873 447.235C249.462 446.756 249.489 445.982 248.935 445.476L169.078 372.498Z" fill="black"/>
<path d="M99.0071 411.888V369.157C99.0071 367.51 101.576 366.821 102.765 368.149L122.778 390.505C123.335 391.128 123.312 391.98 122.721 392.582L102.708 412.957C101.477 414.21 99.0071 413.497 99.0071 411.888Z" fill="#2C0839"/>
<path d="M99.0071 512.876V487.484C99.0071 486.036 101.072 485.248 102.426 486.18L139.3 511.572C140.787 512.595 139.903 514.581 137.962 514.581H101.087C99.9384 514.581 99.0071 513.818 99.0071 512.876Z" fill="#2C0839"/>
<path d="M271.205 452.909L198.464 382.489C197.678 381.729 197.853 380.581 198.843 380.001L225.37 364.479C226.747 363.673 228.659 364.479 228.659 365.865V408.38C228.659 409.321 229.591 410.084 230.74 410.084H510.6C511.749 410.084 512.68 410.847 512.68 411.788V512.876C512.68 513.818 511.749 514.581 510.6 514.581H202.107C200.242 514.581 199.319 512.726 200.652 511.658L271.071 455.228C271.851 454.603 271.909 453.591 271.205 452.909Z" fill="#2C0839"/>
<path fill-rule="evenodd" clip-rule="evenodd" d="M224.464 363.438C226.873 362.028 230.22 363.44 230.22 365.865V408.38C230.22 408.615 230.453 408.806 230.74 408.806H510.601C512.611 408.806 514.241 410.141 514.241 411.788V512.876C514.241 514.523 512.611 515.858 510.601 515.858H202.107C198.845 515.858 197.229 512.613 199.562 510.744L269.981 454.314C270.176 454.158 270.19 453.905 270.014 453.734L197.274 383.315C195.899 381.984 196.205 379.974 197.937 378.961L224.464 363.438ZM227.1 365.865C227.1 365.519 226.622 365.317 226.277 365.519L199.75 381.041C199.503 381.186 199.459 381.473 199.655 381.663L227.1 408.232V365.865ZM230.312 411.342L272.396 452.083C273.629 453.277 273.527 455.048 272.163 456.142L201.743 512.572C201.41 512.839 201.641 513.302 202.107 513.302H510.601C510.888 513.302 511.121 513.111 511.121 512.876V411.788C511.121 411.553 510.888 411.362 510.601 411.362H230.74C230.595 411.362 230.452 411.355 230.312 411.342ZM101.507 368.905C101.21 368.573 100.568 368.745 100.568 369.157V411.888C100.568 412.29 101.185 412.469 101.493 412.155L121.506 391.78C121.654 391.63 121.66 391.417 121.52 391.261L101.507 368.905ZM97.4474 369.157C97.4474 366.275 101.942 365.069 104.023 367.393L124.036 389.749C125.012 390.839 124.971 392.33 123.937 393.383L103.924 413.758C101.77 415.951 97.4474 414.703 97.4474 411.888V369.157ZM101.422 487.158C101.084 486.925 100.568 487.122 100.568 487.484V512.876C100.568 513.111 100.8 513.302 101.088 513.302H137.963C138.448 513.302 138.669 512.806 138.297 512.55L101.422 487.158ZM103.43 485.201L102.426 486.179L103.43 485.201L140.305 510.593C142.905 512.384 141.36 515.858 137.963 515.858H101.088C99.0772 515.858 97.4474 514.523 97.4474 512.876V487.484C97.4474 484.95 101.062 483.57 103.43 485.201Z" fill="#2C0839"/>
<path d="M99.4408 288.517V57.4091C99.4408 56.4679 100.372 55.7049 101.521 55.7049H227.013C228.162 55.7049 229.093 56.4679 229.093 57.4091V288.159C229.093 289.728 226.724 290.463 225.455 289.288L169.424 237.403C168.628 236.665 167.236 236.632 166.389 237.332L102.998 289.717C101.69 290.798 99.4408 290.039 99.4408 288.517Z" fill="#2C0839"/>
<path fill-rule="evenodd" clip-rule="evenodd" d="M101.521 56.983C101.234 56.983 101.001 57.1737 101.001 57.409V288.517C101.001 288.897 101.564 289.087 101.891 288.817L165.282 236.432C166.763 235.208 169.199 235.264 170.593 236.556L226.624 288.441C226.941 288.735 227.533 288.551 227.533 288.158V57.409C227.533 57.1737 227.301 56.983 227.013 56.983H101.521ZM97.8811 57.409C97.8811 55.7619 99.5109 54.4267 101.521 54.4267H227.013C229.024 54.4267 230.654 55.7619 230.654 57.409V288.158C230.654 290.904 226.508 292.191 224.287 290.135L168.256 238.249C168.057 238.065 167.709 238.057 167.497 238.232L104.106 290.617C101.818 292.508 97.8811 291.18 97.8811 288.517V57.409Z" fill="#2C0839"/>
<path d="M80.2495 577.188H63.3567V538.147H80.3891C85.1824 538.147 89.3087 538.928 92.7679 540.492C96.2271 542.042 98.8875 544.272 100.749 547.183C102.626 550.093 103.564 553.575 103.564 557.629C103.564 561.696 102.626 565.191 100.749 568.114C98.8875 571.037 96.2116 573.28 92.7214 574.843C89.2466 576.407 85.0894 577.188 80.2495 577.188ZM73.4319 570.116H79.8307C82.8091 570.116 85.3143 569.684 87.3464 568.819C89.394 567.943 90.9297 566.589 91.9535 564.759C92.9928 562.916 93.5125 560.54 93.5125 557.629C93.5125 554.744 92.9928 552.387 91.9535 550.557C90.9297 548.727 89.4018 547.38 87.3697 546.515C85.3375 545.651 82.8323 545.219 79.854 545.219H73.4319V570.116Z" fill="#2C0839"/>
<path d="M127.129 577.76C123.453 577.76 120.289 577.15 117.636 575.93C114.999 574.697 112.967 572.956 111.54 570.707C110.113 568.445 109.399 565.769 109.399 562.681C109.399 559.669 110.113 557.026 111.54 554.751C112.967 552.476 114.976 550.703 117.566 549.432C120.172 548.161 123.228 547.526 126.734 547.526C129.092 547.526 131.287 547.837 133.319 548.46C135.366 549.07 137.15 549.991 138.671 551.224C140.206 552.457 141.401 554.007 142.254 555.876C143.107 557.731 143.534 559.904 143.534 562.395V564.626H113.355V559.593H134.203C134.203 558.424 133.893 557.388 133.272 556.486C132.652 555.583 131.791 554.878 130.69 554.37C129.604 553.848 128.339 553.588 126.897 553.588C125.392 553.588 124.058 553.874 122.895 554.446C121.747 555.005 120.847 555.761 120.196 556.714C119.544 557.655 119.21 558.703 119.195 559.86V564.645C119.195 566.093 119.521 567.345 120.172 568.4C120.839 569.455 121.778 570.268 122.988 570.84C124.198 571.412 125.633 571.698 127.292 571.698C128.394 571.698 129.402 571.571 130.317 571.317C131.232 571.063 132.016 570.681 132.667 570.173C133.319 569.665 133.815 569.042 134.157 568.305L143.324 568.8C142.859 570.605 141.905 572.181 140.462 573.528C139.035 574.863 137.189 575.905 134.924 576.654C132.675 577.392 130.077 577.76 127.129 577.76Z" fill="#2C0839"/>
<path d="M179.739 556.257L170.665 556.714C170.509 556.079 170.176 555.507 169.664 554.999C169.152 554.478 168.477 554.065 167.64 553.76C166.818 553.442 165.833 553.283 164.685 553.283C163.149 553.283 161.854 553.55 160.799 554.084C159.744 554.605 159.217 555.304 159.217 556.181C159.217 556.88 159.558 557.471 160.24 557.953C160.923 558.436 162.094 558.824 163.754 559.116L170.223 560.184C173.697 560.768 176.288 561.709 177.994 563.005C179.701 564.302 180.554 566.004 180.554 568.114C180.554 570.033 179.863 571.717 178.483 573.166C177.118 574.615 175.241 575.746 172.852 576.559C170.478 577.36 167.741 577.76 164.638 577.76C159.907 577.76 156.137 576.953 153.33 575.339C150.537 573.712 148.901 571.501 148.42 568.705L158.169 568.286C158.464 569.468 159.178 570.37 160.31 570.993C161.443 571.603 162.893 571.908 164.661 571.908C166.399 571.908 167.795 571.634 168.85 571.088C169.92 570.529 170.463 569.811 170.478 568.934C170.463 568.197 170.083 567.593 169.338 567.123C168.594 566.64 167.446 566.271 165.895 566.017L159.705 565.007C156.215 564.435 153.617 563.444 151.91 562.033C150.219 560.622 149.374 558.824 149.374 556.638C149.374 554.757 149.995 553.137 151.236 551.777C152.492 550.417 154.253 549.369 156.517 548.632C158.798 547.894 161.466 547.526 164.522 547.526C169.036 547.526 172.588 548.307 175.179 549.871C177.785 551.434 179.305 553.563 179.739 556.257Z" fill="#2C0839"/>
<path d="M203.083 577.76C199.407 577.76 196.242 577.15 193.59 575.93C190.953 574.697 188.921 572.956 187.493 570.707C186.066 568.445 185.353 565.769 185.353 562.681C185.353 559.669 186.066 557.026 187.493 554.751C188.921 552.476 190.929 550.703 193.52 549.432C196.126 548.161 199.182 547.526 202.688 547.526C205.046 547.526 207.241 547.837 209.273 548.46C211.32 549.07 213.104 549.991 214.624 551.224C216.16 552.457 217.355 554.007 218.208 555.876C219.061 557.731 219.487 559.904 219.487 562.395V564.626H189.308V559.593H210.157C210.157 558.424 209.847 557.388 209.226 556.486C208.606 555.583 207.745 554.878 206.643 554.37C205.557 553.848 204.293 553.588 202.851 553.588C201.346 553.588 200.012 553.874 198.848 554.446C197.701 555.005 196.801 555.761 196.149 556.714C195.498 557.655 195.164 558.703 195.149 559.86V564.645C195.149 566.093 195.475 567.345 196.126 568.4C196.793 569.455 197.732 570.268 198.942 570.84C200.151 571.412 201.586 571.698 203.246 571.698C204.348 571.698 205.356 571.571 206.271 571.317C207.186 571.063 207.97 570.681 208.621 570.173C209.273 569.665 209.769 569.042 210.11 568.305L219.278 568.8C218.813 570.605 217.859 572.181 216.416 573.528C214.989 574.863 213.143 575.905 210.878 576.654C208.629 577.392 206.031 577.76 203.083 577.76Z" fill="#2C0839"/>
<path d="M235.868 560.26V577.188H225.956V547.907H235.403V553.073H235.822C236.613 551.37 237.939 550.023 239.801 549.032C241.662 548.028 243.919 547.526 246.572 547.526C249.054 547.526 251.218 547.971 253.064 548.86C254.91 549.75 256.345 551.021 257.368 552.673C258.392 554.312 258.904 556.27 258.904 558.544V577.188H248.992V559.993C249.007 558.201 248.449 556.803 247.316 555.799C246.184 554.783 244.625 554.274 242.64 554.274C241.305 554.274 240.127 554.509 239.103 554.98C238.094 555.45 237.303 556.136 236.729 557.038C236.171 557.928 235.884 559.002 235.868 560.26Z" fill="#2C0839"/>
<path d="M298.757 547.907L286.262 577.188H275.093L262.598 547.907H273.069L280.491 568.858H280.864L288.263 547.907H298.757Z" fill="#2C0839"/>
<path d="M318.826 577.76C315.212 577.76 312.086 577.131 309.449 575.873C306.827 574.602 304.803 572.835 303.376 570.573C301.949 568.298 301.235 565.661 301.235 562.662C301.235 559.637 301.949 556.994 303.376 554.732C304.803 552.457 306.827 550.69 309.449 549.432C312.086 548.161 315.212 547.526 318.826 547.526C322.44 547.526 325.558 548.161 328.18 549.432C330.817 550.69 332.849 552.457 334.276 554.732C335.703 556.994 336.417 559.637 336.417 562.662C336.417 565.661 335.703 568.298 334.276 570.573C332.849 572.835 330.817 574.602 328.18 575.873C325.558 577.131 322.44 577.76 318.826 577.76ZM318.873 571.469C320.517 571.469 321.89 571.088 322.991 570.325C324.092 569.55 324.922 568.495 325.481 567.161C326.055 565.827 326.342 564.308 326.342 562.605C326.342 560.902 326.055 559.383 325.481 558.049C324.922 556.714 324.092 555.659 322.991 554.884C321.89 554.109 320.517 553.721 318.873 553.721C317.213 553.721 315.817 554.109 314.684 554.884C313.567 555.659 312.722 556.714 312.148 558.049C311.59 559.383 311.31 560.902 311.31 562.605C311.31 564.308 311.59 565.827 312.148 567.161C312.722 568.495 313.567 569.55 314.684 570.325C315.817 571.088 317.213 571.469 318.873 571.469Z" fill="#2C0839"/>
<path d="M352.775 538.147V577.188H342.862V538.147H352.775Z" fill="#2C0839"/>
<path d="M394.035 547.907L381.54 577.188H370.371L357.876 547.907H368.347L375.77 568.858H376.142L383.541 547.907H394.035Z" fill="#2C0839"/>
<path d="M414.244 577.76C410.567 577.76 407.403 577.15 404.75 575.93C402.113 574.697 400.081 572.956 398.654 570.707C397.227 568.445 396.513 565.769 396.513 562.681C396.513 559.669 397.227 557.026 398.654 554.751C400.081 552.476 402.09 550.703 404.681 549.432C407.287 548.161 410.342 547.526 413.848 547.526C416.206 547.526 418.401 547.837 420.433 548.46C422.481 549.07 424.265 549.991 425.785 551.224C427.321 552.457 428.515 554.007 429.368 555.876C430.221 557.731 430.648 559.904 430.648 562.395V564.626H400.469V559.593H421.317C421.317 558.424 421.007 557.388 420.387 556.486C419.766 555.583 418.905 554.878 417.804 554.37C416.718 553.848 415.454 553.588 414.011 553.588C412.506 553.588 411.172 553.874 410.009 554.446C408.861 555.005 407.961 555.761 407.31 556.714C406.658 557.655 406.325 558.703 406.309 559.86V564.645C406.309 566.093 406.635 567.345 407.287 568.4C407.954 569.455 408.892 570.268 410.102 570.84C411.312 571.412 412.747 571.698 414.407 571.698C415.508 571.698 416.516 571.571 417.432 571.317C418.347 571.063 419.13 570.681 419.782 570.173C420.433 569.665 420.93 569.042 421.271 568.305L430.439 568.8C429.973 570.605 429.019 572.181 427.577 573.528C426.149 574.863 424.303 575.905 422.039 576.654C419.789 577.392 417.191 577.76 414.244 577.76Z" fill="#2C0839"/>
<path d="M450.286 577.665C447.572 577.665 445.113 577.093 442.91 575.949C440.723 574.793 438.986 573.096 437.698 570.859C436.426 568.61 435.79 565.852 435.79 562.586C435.79 559.231 436.45 556.441 437.768 554.217C439.087 551.98 440.84 550.309 443.027 549.203C445.23 548.085 447.642 547.526 450.263 547.526C452.264 547.526 453.932 547.805 455.266 548.365C456.616 548.911 457.701 549.597 458.523 550.423C459.361 551.237 459.997 552.037 460.432 552.825H460.734V538.147H470.623V577.188H460.85V572.499H460.432C459.966 573.312 459.307 574.119 458.454 574.92C457.616 575.708 456.522 576.362 455.173 576.883C453.839 577.404 452.21 577.665 450.286 577.665ZM453.428 571.202C455.025 571.202 456.375 570.847 457.476 570.135C458.593 569.41 459.447 568.4 460.036 567.104C460.641 565.807 460.943 564.289 460.943 562.548C460.943 560.807 460.649 559.294 460.059 558.011C459.47 556.727 458.617 555.736 457.5 555.037C456.383 554.338 455.025 553.988 453.428 553.988C451.799 553.988 450.426 554.35 449.309 555.075C448.192 555.799 447.347 556.803 446.773 558.087C446.199 559.37 445.912 560.857 445.912 562.548C445.912 564.251 446.199 565.757 446.773 567.066C447.362 568.362 448.208 569.379 449.309 570.116C450.426 570.84 451.799 571.202 453.428 571.202Z" fill="#2C0839"/>
<path d="M494.921 577.76C491.307 577.76 488.181 577.131 485.544 575.873C482.922 574.602 480.898 572.835 479.471 570.573C478.044 568.298 477.33 565.661 477.33 562.662C477.33 559.637 478.044 556.994 479.471 554.732C480.898 552.457 482.922 550.69 485.544 549.432C488.181 548.161 491.307 547.526 494.921 547.526C498.535 547.526 501.653 548.161 504.275 549.432C506.912 550.69 508.944 552.457 510.371 554.732C511.798 556.994 512.512 559.637 512.512 562.662C512.512 565.661 511.798 568.298 510.371 570.573C508.944 572.835 506.912 574.602 504.275 575.873C501.653 577.131 498.535 577.76 494.921 577.76ZM494.968 571.469C496.612 571.469 497.985 571.088 499.086 570.325C500.188 569.55 501.017 568.495 501.576 567.161C502.15 565.827 502.437 564.308 502.437 562.605C502.437 560.902 502.15 559.383 501.576 558.049C501.017 556.714 500.188 555.659 499.086 554.884C497.985 554.109 496.612 553.721 494.968 553.721C493.308 553.721 491.912 554.109 490.779 554.884C489.662 555.659 488.817 556.714 488.243 558.049C487.685 559.383 487.405 560.902 487.405 562.605C487.405 564.308 487.685 565.827 488.243 567.161C488.817 568.495 489.662 569.55 490.779 570.325C491.912 571.088 493.308 571.469 494.968 571.469Z" fill="#2C0839"/>
<path d="M518.957 577.188V547.907H528.567V553.016H528.939C529.591 551.199 530.685 549.826 532.22 548.898C533.756 547.958 535.524 547.488 537.525 547.488C538.022 547.488 538.557 547.513 539.131 547.564C539.705 547.615 540.209 547.685 540.643 547.774V554.98C540.178 554.865 539.534 554.764 538.712 554.675C537.89 554.586 537.138 554.541 536.455 554.541C534.997 554.541 533.694 554.802 532.546 555.323C531.414 555.831 530.514 556.543 529.847 557.458C529.195 558.373 528.87 559.428 528.87 560.622V577.188H518.957Z" fill="#2C0839"/>
</svg>
