<svg width="667" height="651" viewBox="0 0 667 651" fill="none" xmlns="http://www.w3.org/2000/svg">
<path fill-rule="evenodd" clip-rule="evenodd" d="M333.333 0C149.167 0 0 149.167 0 333.333C0 480.833 95.4167 605.417 227.917 649.583C244.583 652.5 250.833 642.5 250.833 633.75C250.833 625.833 250.417 599.583 250.417 571.667C166.667 587.083 145 551.25 138.333 532.5C134.583 522.917 118.333 493.333 104.167 485.417C92.5 479.167 75.8333 463.75 103.75 463.333C130 462.917 148.75 487.5 155 497.5C185 547.917 232.917 533.75 252.083 525C255 503.333 263.75 488.75 273.333 480.417C199.167 472.083 121.667 443.333 121.667 315.833C121.667 279.583 134.583 249.583 155.833 226.25C152.5 217.917 140.833 183.75 159.167 137.917C159.167 137.917 187.083 129.167 250.833 172.083C277.5 164.583 305.833 160.833 334.167 160.833C362.5 160.833 390.833 164.583 417.5 172.083C481.25 128.75 509.167 137.917 509.167 137.917C527.5 183.75 515.833 217.917 512.5 226.25C533.75 249.583 546.667 279.167 546.667 315.833C546.667 443.75 468.75 472.083 394.583 480.417C406.667 490.833 417.083 510.833 417.083 542.083C417.083 586.667 416.667 622.5 416.667 633.75C416.667 642.5 422.917 652.917 439.583 649.583C505.757 627.243 563.257 584.717 603.993 527.983C644.73 471.253 666.65 403.177 666.667 333.333C666.667 149.167 517.5 0 333.333 0Z" fill="black"/>
</svg>
